<svg width="45" height="45" viewBox="0 0 41 37" fill="none" xmlns="http://www.w3.org/2000/svg">
<path fill-rule="evenodd" clip-rule="evenodd" d="M20.5 0.218754C15.9456 0.218754 11.4681 0.552504 7.09 1.19563C3.38125 1.73938 0.8125 4.99063 0.8125 8.63938V19.9231C0.8125 23.5719 3.38125 26.8231 7.09 27.3669C8.73438 27.6088 10.3919 27.8056 12.0625 27.9594V35.375C12.0627 35.653 12.1454 35.9246 12.2999 36.1556C12.4544 36.3867 12.674 36.5667 12.9308 36.673C13.1876 36.7794 13.4701 36.8072 13.7428 36.7531C14.0154 36.6989 14.2658 36.5652 14.4625 36.3688L22.3075 28.5256C22.4408 28.3944 22.6193 28.3193 22.8062 28.3156C26.5675 28.2219 30.2725 27.9031 33.91 27.3669C37.6188 26.8231 40.1875 23.5738 40.1875 19.9231V8.63938C40.1875 4.98876 37.6188 1.73938 33.91 1.19563C29.4698 0.543885 24.9878 0.217392 20.5 0.218754ZM13.4688 12.1719C12.9093 12.1719 12.3728 12.3941 11.9772 12.7897C11.5816 13.1853 11.3594 13.7218 11.3594 14.2813C11.3594 14.8407 11.5816 15.3772 11.9772 15.7728C12.3728 16.1684 12.9093 16.3906 13.4688 16.3906C14.0282 16.3906 14.5647 16.1684 14.9603 15.7728C15.3559 15.3772 15.5781 14.8407 15.5781 14.2813C15.5781 13.7218 15.3559 13.1853 14.9603 12.7897C14.5647 12.3941 14.0282 12.1719 13.4688 12.1719ZM18.3906 14.2813C18.3906 13.7218 18.6129 13.1853 19.0084 12.7897C19.404 12.3941 19.9406 12.1719 20.5 12.1719C21.0594 12.1719 21.596 12.3941 21.9916 12.7897C22.3871 13.1853 22.6094 13.7218 22.6094 14.2813C22.6094 14.8407 22.3871 15.3772 21.9916 15.7728C21.596 16.1684 21.0594 16.3906 20.5 16.3906C19.9406 16.3906 19.404 16.1684 19.0084 15.7728C18.6129 15.3772 18.3906 14.8407 18.3906 14.2813ZM27.5312 12.1719C26.9718 12.1719 26.4353 12.3941 26.0397 12.7897C25.6441 13.1853 25.4219 13.7218 25.4219 14.2813C25.4219 14.8407 25.6441 15.3772 26.0397 15.7728C26.4353 16.1684 26.9718 16.3906 27.5312 16.3906C28.0907 16.3906 28.6272 16.1684 29.0228 15.7728C29.4184 15.3772 29.6406 14.8407 29.6406 14.2813C29.6406 13.7218 29.4184 13.1853 29.0228 12.7897C28.6272 12.3941 28.0907 12.1719 27.5312 12.1719Z" fill="#002A78"/>
</svg>
