<svg width="225" height="188" viewBox="0 0 225 188" fill="none" xmlns="http://www.w3.org/2000/svg">
<path d="M112.5 58.125V96.875M131.875 77.5H93.125M170.625 77.5C170.625 85.1331 169.122 92.6914 166.201 99.7435C163.279 106.796 158.998 113.203 153.601 118.601C148.203 123.998 141.796 128.279 134.743 131.201C127.691 134.122 120.133 135.625 112.5 135.625C104.867 135.625 97.3086 134.122 90.2565 131.201C83.2045 128.279 76.7968 123.998 71.3994 118.601C66.002 113.203 61.7206 106.796 58.7995 99.7435C55.8784 92.6914 54.375 85.1331 54.375 77.5C54.375 62.0843 60.4989 47.3 71.3994 36.3994C82.3 25.4989 97.0843 19.375 112.5 19.375C127.916 19.375 142.7 25.4989 153.601 36.3994C164.501 47.3 170.625 62.0843 170.625 77.5Z" stroke="#A1B0CD" stroke-width="5" stroke-linecap="round" stroke-linejoin="round"/>
<path d="M54 165V156.94C54 156.255 53.8447 155.748 53.5342 155.42C53.2295 155.092 52.7695 154.884 52.1543 154.796C52.0137 154.767 51.832 154.743 51.6094 154.726C51.3926 154.708 51.1436 154.699 50.8623 154.699C50.4932 154.699 50.0068 154.717 49.4033 154.752C48.8057 154.787 48.0645 154.843 47.1797 154.919V153.688C47.4551 153.659 47.7246 153.636 47.9883 153.618C48.252 153.601 48.5068 153.583 48.7529 153.565C49.2217 153.536 49.6406 153.516 50.0098 153.504C50.3848 153.486 50.7129 153.478 50.9941 153.478C51.6562 153.478 52.1924 153.507 52.6025 153.565C53.0186 153.624 53.4082 153.729 53.7715 153.882C54.1348 154.034 54.4365 154.228 54.6768 154.462C54.917 154.696 55.1074 154.998 55.248 155.367C55.3359 155.602 55.3975 155.845 55.4326 156.097C55.4736 156.349 55.4941 156.63 55.4941 156.94V165H54ZM47.1797 165V157.978H48.6562V165H47.1797ZM58.5527 165V158.593C58.5527 158.089 58.6025 157.614 58.7021 157.169C58.8018 156.718 58.9365 156.334 59.1064 156.018C59.2471 155.76 59.3877 155.534 59.5283 155.341C59.6689 155.147 59.8125 154.986 59.959 154.857H57.4893V153.653H61.4355V154.743C61.3125 154.837 61.1953 154.951 61.084 155.086C60.9785 155.221 60.876 155.367 60.7764 155.525C60.6826 155.684 60.5977 155.848 60.5215 156.018C60.4277 156.234 60.3457 156.475 60.2754 156.738C60.2109 156.996 60.1582 157.248 60.1172 157.494C60.0879 157.658 60.0645 157.834 60.0469 158.021C60.0352 158.203 60.0293 158.394 60.0293 158.593V165H58.5527ZM67.8779 165V153.688C67.9482 153.677 68.0654 153.665 68.2295 153.653C68.3936 153.642 68.5986 153.627 68.8447 153.609C69.3955 153.562 69.9053 153.53 70.374 153.513C70.8428 153.489 71.2734 153.478 71.666 153.478C72.3516 153.478 72.9053 153.51 73.3271 153.574C73.749 153.633 74.1475 153.741 74.5225 153.899C74.8623 154.046 75.1465 154.23 75.375 154.453C75.6035 154.67 75.791 154.954 75.9375 155.306C76.0254 155.517 76.0898 155.748 76.1309 156C76.1719 156.246 76.1924 156.519 76.1924 156.817V165H67.8779ZM69.3633 163.796H74.6982V156.791C74.6982 156.41 74.6484 156.094 74.5488 155.842C74.4492 155.584 74.2969 155.376 74.0918 155.218C73.9395 155.089 73.7549 154.989 73.5381 154.919C73.3271 154.843 73.0869 154.79 72.8174 154.761C72.6768 154.737 72.501 154.723 72.29 154.717C72.085 154.705 71.8447 154.699 71.5693 154.699C71.2998 154.699 70.9805 154.708 70.6113 154.726C70.2422 154.743 69.8262 154.77 69.3633 154.805V163.796ZM79.1895 165V153.653H80.666V165H79.1895ZM83.6455 160.896V153.653H85.1309V159.568L84.0674 160.896H83.6455ZM87.2754 165V163.796H92.7949V156.94C92.7949 156.249 92.6367 155.739 92.3203 155.411C92.0039 155.083 91.5381 154.875 90.9229 154.787C90.7764 154.758 90.6094 154.737 90.4219 154.726C90.2344 154.708 90.0205 154.699 89.7803 154.699C89.5049 154.699 89.1621 154.711 88.752 154.734C88.3418 154.752 87.8467 154.781 87.2666 154.822V153.601C87.7002 153.56 88.1279 153.53 88.5498 153.513C88.9775 153.489 89.4023 153.478 89.8242 153.478C90.4102 153.478 90.8994 153.504 91.292 153.557C91.6904 153.604 92.0684 153.691 92.4258 153.82C92.7891 153.955 93.0908 154.128 93.3311 154.339C93.5713 154.55 93.7646 154.819 93.9111 155.147C94.0049 155.306 94.0781 155.476 94.1309 155.657C94.1836 155.839 94.2217 156.032 94.2451 156.237C94.2686 156.442 94.2803 156.665 94.2803 156.905V163.796H95.5811V165H87.2754ZM102.12 165V153.688C102.19 153.677 102.308 153.665 102.472 153.653C102.636 153.642 102.841 153.627 103.087 153.609C103.638 153.562 104.147 153.53 104.616 153.513C105.085 153.489 105.516 153.478 105.908 153.478C106.594 153.478 107.147 153.51 107.569 153.574C107.991 153.633 108.39 153.741 108.765 153.899C109.104 154.046 109.389 154.23 109.617 154.453C109.846 154.67 110.033 154.954 110.18 155.306C110.268 155.517 110.332 155.748 110.373 156C110.414 156.246 110.435 156.519 110.435 156.817V165H102.12ZM103.605 163.796H108.94V156.791C108.94 156.41 108.891 156.094 108.791 155.842C108.691 155.584 108.539 155.376 108.334 155.218C108.182 155.089 107.997 154.989 107.78 154.919C107.569 154.843 107.329 154.79 107.06 154.761C106.919 154.737 106.743 154.723 106.532 154.717C106.327 154.705 106.087 154.699 105.812 154.699C105.542 154.699 105.223 154.708 104.854 154.726C104.484 154.743 104.068 154.77 103.605 154.805V163.796ZM113.317 160.896V153.653H114.803V159.568L113.739 160.896H113.317ZM116.745 165.475V164.253L119.101 163.901C119.265 163.872 119.432 163.84 119.602 163.805C119.777 163.77 119.95 163.726 120.12 163.673L117.466 153.653H118.925L120.27 158.742L121.324 163.216C121.875 162.946 122.364 162.589 122.792 162.144C123.22 161.692 123.568 161.168 123.838 160.57C124.107 159.973 124.28 159.316 124.356 158.602L124.831 153.653H126.237L125.763 158.558C125.716 159.05 125.628 159.519 125.499 159.964C125.376 160.409 125.209 160.834 124.998 161.238C124.793 161.637 124.55 162.015 124.269 162.372C123.782 163.075 123.144 163.658 122.353 164.121C121.562 164.584 120.63 164.895 119.558 165.053C119.03 165.135 118.532 165.208 118.063 165.272C117.595 165.343 117.155 165.41 116.745 165.475ZM128.355 165V153.653H129.832V165H128.355ZM137.479 165V156.94C137.479 156.249 137.32 155.739 137.004 155.411C136.688 155.077 136.216 154.866 135.589 154.778C135.448 154.749 135.293 154.729 135.123 154.717C134.959 154.705 134.783 154.699 134.596 154.699C134.367 154.699 134.083 154.705 133.743 154.717C133.403 154.723 133.058 154.737 132.706 154.761C132.354 154.778 132.044 154.796 131.774 154.813V153.583C132.296 153.548 132.773 153.521 133.207 153.504C133.641 153.486 134.036 153.478 134.394 153.478C135.097 153.478 135.656 153.507 136.072 153.565C136.488 153.624 136.878 153.729 137.241 153.882C137.604 154.034 137.906 154.228 138.146 154.462C138.387 154.69 138.58 154.992 138.727 155.367C138.809 155.602 138.867 155.845 138.902 156.097C138.943 156.349 138.964 156.63 138.964 156.94V165H137.479ZM141.812 160.896V153.653H143.297V159.568L142.233 160.896H141.812ZM145.705 165V161.01C145.705 160.646 145.723 160.312 145.758 160.008C145.799 159.697 145.866 159.404 145.96 159.129C146.06 158.854 146.206 158.584 146.399 158.32C146.563 158.074 146.777 157.866 147.041 157.696C147.311 157.526 147.633 157.397 148.008 157.31L145.767 153.653H147.384L151.339 160.192C151.421 160.163 151.497 160.131 151.567 160.096C151.638 160.061 151.702 160.02 151.761 159.973C152.089 159.773 152.32 159.51 152.455 159.182C152.596 158.854 152.666 158.394 152.666 157.802V153.653H154.116V157.802C154.116 158.3 154.078 158.739 154.002 159.12C153.926 159.495 153.803 159.829 153.633 160.122C153.492 160.368 153.284 160.6 153.009 160.816C152.733 161.027 152.405 161.186 152.024 161.291L154.292 165H152.666L148.693 158.417C148.482 158.429 148.245 158.514 147.981 158.672C147.724 158.83 147.524 159.091 147.384 159.454C147.237 159.841 147.164 160.359 147.164 161.01V165H145.705ZM161.438 169.289V157.222C161.438 156.847 161.417 156.475 161.376 156.105C161.341 155.73 161.288 155.367 161.218 155.016C161.147 154.658 161.062 154.321 160.963 154.005C160.945 153.946 160.928 153.888 160.91 153.829C160.893 153.771 160.872 153.712 160.849 153.653H162.343C162.366 153.718 162.39 153.794 162.413 153.882C162.442 153.97 162.472 154.069 162.501 154.181C162.548 154.327 162.604 154.573 162.668 154.919C162.732 155.259 162.788 155.637 162.835 156.053C162.888 156.469 162.914 156.858 162.914 157.222V169.289H161.438ZM165.876 160.896V153.653H167.361V159.568L166.298 160.896H165.876ZM169.77 165V161.01C169.77 160.646 169.787 160.312 169.822 160.008C169.863 159.697 169.931 159.404 170.024 159.129C170.124 158.854 170.271 158.584 170.464 158.32C170.628 158.074 170.842 157.866 171.105 157.696C171.375 157.526 171.697 157.397 172.072 157.31L169.831 153.653H171.448L175.403 160.192C175.485 160.163 175.562 160.131 175.632 160.096C175.702 160.061 175.767 160.02 175.825 159.973C176.153 159.773 176.385 159.51 176.52 159.182C176.66 158.854 176.73 158.394 176.73 157.802V153.653H178.181V157.802C178.181 158.3 178.143 158.739 178.066 159.12C177.99 159.495 177.867 159.829 177.697 160.122C177.557 160.368 177.349 160.6 177.073 160.816C176.798 161.027 176.47 161.186 176.089 161.291L178.356 165H176.73L172.758 158.417C172.547 158.429 172.31 158.514 172.046 158.672C171.788 158.83 171.589 159.091 171.448 159.454C171.302 159.841 171.229 160.359 171.229 161.01V165H169.77ZM0.0966797 183.475V182.253L2.45215 181.901C2.61621 181.872 2.7832 181.84 2.95312 181.805C3.12891 181.77 3.30176 181.726 3.47168 181.673L0.817383 171.653H2.27637L3.62109 176.742L4.67578 181.216C5.22656 180.946 5.71582 180.589 6.14355 180.144C6.57129 179.692 6.91992 179.168 7.18945 178.57C7.45898 177.973 7.63184 177.316 7.70801 176.602L8.18262 171.653H9.58887L9.11426 176.558C9.06738 177.05 8.97949 177.519 8.85059 177.964C8.72754 178.409 8.56055 178.834 8.34961 179.238C8.14453 179.637 7.90137 180.015 7.62012 180.372C7.13379 181.075 6.49512 181.658 5.7041 182.121C4.91309 182.584 3.98145 182.895 2.90918 183.053C2.38184 183.135 1.88379 183.208 1.41504 183.272C0.946289 183.343 0.506836 183.41 0.0966797 183.475ZM11.707 183V171.653H13.1836V183H11.707ZM20.8301 183V174.94C20.8301 174.249 20.6719 173.739 20.3555 173.411C20.0391 173.077 19.5674 172.866 18.9404 172.778C18.7998 172.749 18.6445 172.729 18.4746 172.717C18.3105 172.705 18.1348 172.699 17.9473 172.699C17.7188 172.699 17.4346 172.705 17.0947 172.717C16.7549 172.723 16.4092 172.737 16.0576 172.761C15.7061 172.778 15.3955 172.796 15.126 172.813V171.583C15.6475 171.548 16.125 171.521 16.5586 171.504C16.9922 171.486 17.3877 171.478 17.7451 171.478C18.4482 171.478 19.0078 171.507 19.4238 171.565C19.8398 171.624 20.2295 171.729 20.5928 171.882C20.9561 172.034 21.2578 172.228 21.498 172.462C21.7383 172.69 21.9316 172.992 22.0781 173.367C22.1602 173.602 22.2188 173.845 22.2539 174.097C22.2949 174.349 22.3154 174.63 22.3154 174.94V183H20.8301ZM25.1631 178.896V171.653H26.6484V177.568L25.585 178.896H25.1631ZM29.0566 183V179.01C29.0566 178.646 29.0742 178.312 29.1094 178.008C29.1504 177.697 29.2178 177.404 29.3115 177.129C29.4111 176.854 29.5576 176.584 29.751 176.32C29.915 176.074 30.1289 175.866 30.3926 175.696C30.6621 175.526 30.9844 175.397 31.3594 175.31L29.1182 171.653H30.7354L34.6904 178.192C34.7725 178.163 34.8486 178.131 34.9189 178.096C34.9893 178.061 35.0537 178.02 35.1123 177.973C35.4404 177.773 35.6719 177.51 35.8066 177.182C35.9473 176.854 36.0176 176.394 36.0176 175.802V171.653H37.4678V175.802C37.4678 176.3 37.4297 176.739 37.3535 177.12C37.2773 177.495 37.1543 177.829 36.9844 178.122C36.8438 178.368 36.6357 178.6 36.3604 178.816C36.085 179.027 35.7568 179.186 35.376 179.291L37.6436 183H36.0176L32.0449 176.417C31.834 176.429 31.5967 176.514 31.333 176.672C31.0752 176.83 30.876 177.091 30.7354 177.454C30.5889 177.841 30.5156 178.359 30.5156 179.01V183H29.0566ZM51.3633 187.324V177.322C51.3633 176.449 51.29 175.705 51.1436 175.09C51.0029 174.475 50.792 173.988 50.5107 173.631C50.2764 173.32 49.9805 173.092 49.623 172.945C49.2715 172.793 48.876 172.717 48.4365 172.717C47.9971 172.717 47.5752 172.79 47.1709 172.937C46.7725 173.077 46.4531 173.294 46.2129 173.587C45.9902 173.839 45.8174 174.126 45.6943 174.448C45.5713 174.771 45.5098 175.107 45.5098 175.459C45.5098 175.928 45.5771 176.335 45.7119 176.681C45.8525 177.026 46.0605 177.305 46.3359 177.516C46.5117 177.645 46.7109 177.753 46.9336 177.841C47.1562 177.929 47.4053 177.996 47.6807 178.043L47.9443 178.087L47.707 179.186L47.4785 179.177C46.9453 179.177 46.4561 179.074 46.0107 178.869C45.5713 178.658 45.2021 178.365 44.9033 177.99C44.6514 177.674 44.4551 177.302 44.3145 176.874C44.1738 176.446 44.1035 175.969 44.1035 175.441C44.1035 174.896 44.1973 174.393 44.3848 173.93C44.5723 173.461 44.8213 173.068 45.1318 172.752C45.2842 172.594 45.4717 172.438 45.6943 172.286C45.9229 172.134 46.1338 172.011 46.3271 171.917C46.6494 171.771 46.9834 171.662 47.3291 171.592C47.6807 171.516 48.0469 171.478 48.4277 171.478C48.8848 171.478 49.3096 171.527 49.7021 171.627C50.0947 171.721 50.4492 171.87 50.7656 172.075C51.0586 172.251 51.3223 172.474 51.5566 172.743C51.7969 173.013 52.0049 173.329 52.1807 173.692C52.4033 174.149 52.5703 174.683 52.6816 175.292C52.7988 175.896 52.8574 176.572 52.8574 177.322V187.324H51.3633ZM55.749 178.896V171.653H57.2344V177.568L56.1709 178.896H55.749ZM64.0371 183.176C63.2168 183.176 62.5107 183.012 61.9189 182.684C61.4912 182.455 61.1191 182.145 60.8027 181.752C60.4922 181.359 60.2402 180.882 60.0469 180.319C59.9062 179.909 59.7979 179.452 59.7217 178.948C59.6514 178.444 59.6162 177.896 59.6162 177.305C59.6162 176.613 59.6689 175.989 59.7744 175.433C59.8857 174.87 60.0498 174.372 60.2666 173.938C60.4893 173.505 60.7646 173.136 61.0928 172.831L61.1191 172.805L59.7744 172.866V171.618C60.3135 171.589 60.8291 171.565 61.3213 171.548C61.8135 171.524 62.2852 171.507 62.7363 171.495C63.1934 171.483 63.627 171.478 64.0371 171.478C64.5176 171.478 64.9629 171.536 65.373 171.653C65.7891 171.771 66.1641 171.949 66.498 172.189C66.8086 172.395 67.084 172.652 67.3242 172.963C67.5645 173.268 67.7666 173.622 67.9307 174.026C68.1123 174.46 68.2471 174.949 68.335 175.494C68.4287 176.039 68.4756 176.643 68.4756 177.305C68.4756 177.82 68.4463 178.304 68.3877 178.755C68.335 179.2 68.2529 179.613 68.1416 179.994C67.96 180.615 67.708 181.148 67.3857 181.594C67.0693 182.033 66.6885 182.382 66.2432 182.64C65.6221 182.997 64.8867 183.176 64.0371 183.176ZM64.0371 181.937C64.4941 181.937 64.8955 181.854 65.2412 181.69C65.5869 181.526 65.8682 181.298 66.085 181.005C66.3018 180.724 66.4717 180.384 66.5947 179.985C66.7236 179.581 66.8115 179.147 66.8584 178.685C66.9111 178.222 66.9375 177.762 66.9375 177.305C66.9375 176.197 66.8291 175.327 66.6123 174.694C66.3955 174.056 66.1055 173.581 65.7422 173.271C65.5371 173.089 65.291 172.948 65.0039 172.849C64.7168 172.749 64.415 172.699 64.0986 172.699C63.7939 172.699 63.5273 172.702 63.2988 172.708C63.0762 172.714 62.8477 172.729 62.6133 172.752C62.1094 173.268 61.7373 173.895 61.4971 174.633C61.2627 175.365 61.1455 176.256 61.1455 177.305C61.1455 178.172 61.2158 178.916 61.3564 179.537C61.4971 180.152 61.7109 180.642 61.998 181.005C62.2148 181.298 62.4932 181.526 62.833 181.69C63.1787 181.854 63.5801 181.937 64.0371 181.937ZM70.9805 183V171.653H72.457V183H70.9805ZM82.3711 183V174.94C82.3711 174.255 82.2158 173.748 81.9053 173.42C81.6006 173.092 81.1406 172.884 80.5254 172.796C80.3848 172.767 80.2031 172.743 79.9805 172.726C79.7637 172.708 79.5146 172.699 79.2334 172.699C78.8643 172.699 78.3779 172.717 77.7744 172.752C77.1768 172.787 76.4355 172.843 75.5508 172.919V171.688C75.8262 171.659 76.0957 171.636 76.3594 171.618C76.623 171.601 76.8779 171.583 77.124 171.565C77.5928 171.536 78.0117 171.516 78.3809 171.504C78.7559 171.486 79.084 171.478 79.3652 171.478C80.0273 171.478 80.5635 171.507 80.9736 171.565C81.3896 171.624 81.7793 171.729 82.1426 171.882C82.5059 172.034 82.8076 172.228 83.0479 172.462C83.2881 172.696 83.4785 172.998 83.6191 173.367C83.707 173.602 83.7686 173.845 83.8037 174.097C83.8447 174.349 83.8652 174.63 83.8652 174.94V183H82.3711ZM75.5508 183V175.978H77.0273V183H75.5508ZM89.3672 183L90.2021 178.658L91.8721 172.875H85.79V169.245H87.2666V171.609H93.3311V172.866L91.6875 178.597L90.8525 183H89.3672ZM99.8877 183.035C99.7705 183.035 99.6445 183.023 99.5098 183C99.375 182.977 99.2256 182.941 99.0615 182.895V181.752C99.2842 181.787 99.5215 181.805 99.7734 181.805C100.195 181.805 100.515 181.667 100.731 181.392C100.948 181.116 101.057 180.691 101.057 180.117V172.831C100.846 172.843 100.635 172.857 100.424 172.875C100.213 172.893 100.002 172.907 99.791 172.919V171.688C100.383 171.642 100.931 171.604 101.435 171.574C101.938 171.539 102.401 171.516 102.823 171.504C103.245 171.486 103.626 171.478 103.966 171.478C104.505 171.478 104.956 171.492 105.319 171.521C105.683 171.551 105.996 171.601 106.26 171.671C106.529 171.741 106.787 171.832 107.033 171.943C107.373 172.102 107.651 172.295 107.868 172.523C108.091 172.752 108.27 173.048 108.404 173.411C108.48 173.616 108.536 173.845 108.571 174.097C108.606 174.343 108.624 174.612 108.624 174.905V183H107.147V174.94C107.147 174.243 106.986 173.73 106.664 173.402C106.342 173.068 105.864 172.857 105.231 172.77C104.962 172.723 104.599 172.699 104.142 172.699C103.925 172.699 103.682 172.705 103.412 172.717C103.148 172.723 102.858 172.734 102.542 172.752V180.117C102.542 180.439 102.519 180.735 102.472 181.005C102.431 181.274 102.357 181.521 102.252 181.743C102.1 182.083 101.895 182.353 101.637 182.552C101.426 182.716 101.174 182.839 100.881 182.921C100.594 182.997 100.263 183.035 99.8877 183.035ZM111.164 183V181.796H114.855C114.926 181.474 114.976 181.157 115.005 180.847C115.04 180.536 115.058 180.229 115.058 179.924V174.352C115.058 174.07 115.022 173.818 114.952 173.596C114.882 173.367 114.776 173.18 114.636 173.033C114.524 172.934 114.396 172.854 114.249 172.796C114.108 172.737 113.944 172.708 113.757 172.708C113.522 172.708 113.282 172.723 113.036 172.752C112.79 172.775 112.535 172.811 112.271 172.857V171.609C112.494 171.562 112.734 171.53 112.992 171.513C113.256 171.489 113.54 171.478 113.845 171.478C114.185 171.478 114.48 171.51 114.732 171.574C114.984 171.639 115.204 171.729 115.392 171.847C115.567 171.958 115.72 172.096 115.849 172.26C115.983 172.424 116.095 172.6 116.183 172.787C116.3 172.992 116.388 173.227 116.446 173.49C116.511 173.754 116.543 174.041 116.543 174.352V179.924C116.543 180.217 116.528 180.53 116.499 180.864C116.47 181.192 116.435 181.509 116.394 181.813C116.353 182.112 116.312 182.358 116.271 182.552L116.191 183H111.164ZM118.758 183L119.549 174.554C119.561 174.442 119.566 174.346 119.566 174.264C119.572 174.176 119.575 174.091 119.575 174.009C119.575 173.833 119.563 173.669 119.54 173.517C119.522 173.358 119.49 173.18 119.443 172.98C119.432 172.922 119.402 172.825 119.355 172.69C119.309 172.55 119.262 172.415 119.215 172.286C119.174 172.151 119.147 172.063 119.136 172.022C119.112 171.952 119.086 171.885 119.057 171.82C119.033 171.75 119.01 171.68 118.986 171.609H120.419C120.524 171.844 120.612 172.063 120.683 172.269C120.753 172.468 120.806 172.655 120.841 172.831H120.955C121.031 172.714 121.181 172.567 121.403 172.392C121.632 172.216 121.86 172.069 122.089 171.952C122.317 171.829 122.619 171.721 122.994 171.627C123.369 171.527 123.771 171.478 124.198 171.478C124.591 171.478 124.948 171.527 125.271 171.627C125.593 171.727 125.88 171.864 126.132 172.04C126.308 172.169 126.466 172.315 126.606 172.479C126.753 172.638 126.879 172.811 126.984 172.998C127.16 173.326 127.292 173.704 127.38 174.132C127.474 174.554 127.521 175.022 127.521 175.538V183H123.645V181.796H126.035V175.538C126.035 175.087 125.985 174.688 125.886 174.343C125.786 173.991 125.637 173.701 125.438 173.473C125.32 173.32 125.183 173.188 125.024 173.077C124.872 172.96 124.693 172.872 124.488 172.813C124.289 172.749 124.061 172.717 123.803 172.717C123.428 172.717 123.073 172.772 122.739 172.884C122.405 172.995 122.136 173.124 121.931 173.271C121.737 173.411 121.562 173.569 121.403 173.745C121.251 173.915 121.128 174.097 121.034 174.29L120.226 183H118.758ZM137.795 183L138.63 178.658L140.3 172.875H134.218V169.245H135.694V171.609H141.759V172.866L140.115 178.597L139.28 183H137.795ZM142.989 183.475V182.253L145.345 181.901C145.509 181.872 145.676 181.84 145.846 181.805C146.021 181.77 146.194 181.726 146.364 181.673L143.71 171.653H145.169L146.514 176.742L147.568 181.216C148.119 180.946 148.608 180.589 149.036 180.144C149.464 179.692 149.812 179.168 150.082 178.57C150.352 177.973 150.524 177.316 150.601 176.602L151.075 171.653H152.481L152.007 176.558C151.96 177.05 151.872 177.519 151.743 177.964C151.62 178.409 151.453 178.834 151.242 179.238C151.037 179.637 150.794 180.015 150.513 180.372C150.026 181.075 149.388 181.658 148.597 182.121C147.806 182.584 146.874 182.895 145.802 183.053C145.274 183.135 144.776 183.208 144.308 183.272C143.839 183.343 143.399 183.41 142.989 183.475ZM163.468 176.057H167.089V177.252H163.468V180.979H162.264V177.252H158.643V176.057H162.264V172.312H163.468V176.057ZM176.766 183L177.601 178.658L179.271 172.875H173.188V169.245H174.665V171.609H180.729V172.866L179.086 178.597L178.251 183H176.766ZM181.96 183.475V182.253L184.315 181.901C184.479 181.872 184.646 181.84 184.816 181.805C184.992 181.77 185.165 181.726 185.335 181.673L182.681 171.653H184.14L185.484 176.742L186.539 181.216C187.09 180.946 187.579 180.589 188.007 180.144C188.435 179.692 188.783 179.168 189.053 178.57C189.322 177.973 189.495 177.316 189.571 176.602L190.046 171.653H191.452L190.978 176.558C190.931 177.05 190.843 177.519 190.714 177.964C190.591 178.409 190.424 178.834 190.213 179.238C190.008 179.637 189.765 180.015 189.483 180.372C188.997 181.075 188.358 181.658 187.567 182.121C186.776 182.584 185.845 182.895 184.772 183.053C184.245 183.135 183.747 183.208 183.278 183.272C182.81 183.343 182.37 183.41 181.96 183.475ZM199.125 187.324V178.104L196.734 171.653H198.272L200.531 177.911C200.707 177.864 200.88 177.817 201.05 177.771C201.22 177.724 201.39 177.677 201.56 177.63C201.993 177.524 202.333 177.264 202.579 176.848C202.831 176.426 202.957 175.878 202.957 175.204V171.653H204.434V175.239C204.434 175.79 204.369 176.282 204.24 176.716C204.111 177.144 203.921 177.51 203.669 177.814C203.47 178.043 203.2 178.254 202.86 178.447C202.526 178.635 202.137 178.77 201.691 178.852L200.61 179.124V187.324H199.125ZM206.947 183V171.688C207.023 171.677 207.144 171.665 207.308 171.653C207.472 171.642 207.68 171.624 207.932 171.601C208.477 171.56 208.983 171.53 209.452 171.513C209.921 171.489 210.349 171.478 210.735 171.478C211.409 171.478 211.954 171.507 212.37 171.565C212.786 171.624 213.176 171.727 213.539 171.873C213.902 172.025 214.204 172.219 214.444 172.453C214.685 172.682 214.875 172.983 215.016 173.358C215.104 173.587 215.165 173.83 215.2 174.088C215.241 174.34 215.262 174.624 215.262 174.94V183H213.768V174.94C213.768 174.237 213.606 173.719 213.284 173.385C212.962 173.051 212.481 172.843 211.843 172.761C211.708 172.743 211.538 172.729 211.333 172.717C211.134 172.705 210.902 172.699 210.639 172.699C210.369 172.699 210.05 172.708 209.681 172.726C209.312 172.743 208.893 172.77 208.424 172.805V183H206.947ZM220.764 183L221.599 178.658L223.269 172.875H217.187V169.245H218.663V171.609H224.728V172.866L223.084 178.597L222.249 183H220.764Z" fill="#A1B0CD"/>
</svg>
