<svg width="422" height="219" viewBox="0 0 422 219" fill="none" xmlns="http://www.w3.org/2000/svg">
<path opacity="0.5" d="M153.627 195.785V182.24C153.627 181.85 153.604 181.459 153.559 181.068C153.52 180.671 153.461 180.281 153.383 179.896C153.305 179.512 153.207 179.135 153.09 178.764C153.077 178.705 153.061 178.646 153.041 178.588C153.021 178.523 152.999 178.461 152.973 178.402H154.252C154.278 178.474 154.304 178.559 154.33 178.656C154.363 178.747 154.395 178.855 154.428 178.979C154.48 179.141 154.542 179.408 154.613 179.779C154.685 180.15 154.747 180.561 154.799 181.01C154.857 181.452 154.887 181.863 154.887 182.24V195.785H153.627ZM157.719 191V186.596C157.719 186.166 157.742 185.769 157.787 185.404C157.833 185.04 157.914 184.698 158.031 184.379C158.148 184.053 158.324 183.741 158.559 183.441C158.741 183.181 158.979 182.963 159.271 182.787C159.564 182.611 159.913 182.484 160.316 182.406L157.875 178.402H159.252L163.812 185.941C163.917 185.915 164.011 185.886 164.096 185.854C164.187 185.814 164.268 185.772 164.34 185.727C164.77 185.479 165.072 185.154 165.248 184.75C165.43 184.34 165.521 183.757 165.521 183.002V178.402H166.752V183.012C166.752 183.591 166.706 184.102 166.615 184.545C166.524 184.988 166.381 185.368 166.186 185.688C166.023 185.948 165.792 186.192 165.492 186.42C165.193 186.648 164.835 186.817 164.418 186.928L166.898 191H165.512L160.922 183.402C160.655 183.409 160.352 183.51 160.014 183.705C159.682 183.9 159.424 184.232 159.242 184.701C159.053 185.17 158.959 185.801 158.959 186.596V191H157.719ZM171.664 191.195C171.111 191.195 170.596 191.166 170.121 191.107C169.652 191.049 169.187 190.964 168.725 190.854V189.613C168.92 189.691 169.177 189.77 169.496 189.848C169.815 189.919 170.157 189.981 170.521 190.033C170.886 190.079 171.234 190.102 171.566 190.102C172.022 190.102 172.426 190.04 172.777 189.916C173.135 189.792 173.435 189.633 173.676 189.438C173.917 189.236 174.128 189.005 174.311 188.744C174.493 188.477 174.633 188.21 174.73 187.943C174.835 187.67 174.926 187.341 175.004 186.957C175.089 186.573 175.131 186.166 175.131 185.736V183.988C175.131 183.207 175.046 182.514 174.877 181.908C174.714 181.296 174.46 180.785 174.115 180.375C173.809 180.023 173.428 179.753 172.973 179.564C172.523 179.376 172.006 179.281 171.42 179.281C171.042 179.281 170.665 179.314 170.287 179.379C169.91 179.438 169.529 179.529 169.145 179.652C169.027 179.685 168.933 179.714 168.861 179.74C168.796 179.76 168.751 179.773 168.725 179.779V178.646C168.933 178.562 169.125 178.5 169.301 178.461C169.477 178.415 169.691 178.373 169.945 178.334C170.186 178.288 170.45 178.259 170.736 178.246C171.023 178.227 171.329 178.217 171.654 178.217C172.292 178.217 172.901 178.331 173.48 178.559C174.066 178.78 174.538 179.073 174.896 179.438C175.079 179.62 175.242 179.822 175.385 180.043C175.535 180.264 175.671 180.502 175.795 180.756C175.938 181.062 176.055 181.387 176.146 181.732C176.238 182.071 176.306 182.429 176.352 182.807C176.397 183.178 176.42 183.572 176.42 183.988V185.736C176.42 186.283 176.374 186.791 176.283 187.26C176.199 187.729 176.072 188.161 175.902 188.559C175.772 188.865 175.613 189.148 175.424 189.408C175.242 189.662 175.03 189.89 174.789 190.092C174.32 190.548 173.799 190.847 173.227 190.99C172.66 191.127 172.139 191.195 171.664 191.195ZM182.045 191L182.943 186.176L184.867 179.477H178.021V175.697H179.291V178.344H186.088V179.574L184.232 186.078L183.324 191H182.045ZM193.148 191.02C193.051 191.02 192.937 191.01 192.807 190.99C192.683 190.964 192.54 190.935 192.377 190.902V189.887C192.592 189.919 192.829 189.936 193.09 189.936C193.578 189.936 193.956 189.77 194.223 189.438C194.49 189.105 194.623 188.598 194.623 187.914V179.408C194.382 179.421 194.145 179.438 193.91 179.457C193.676 179.477 193.438 179.493 193.197 179.506V178.412C193.848 178.367 194.441 178.331 194.975 178.305C195.508 178.272 195.99 178.249 196.42 178.236C196.856 178.217 197.24 178.207 197.572 178.207C198.165 178.207 198.653 178.22 199.037 178.246C199.421 178.272 199.753 178.318 200.033 178.383C200.313 178.448 200.59 178.539 200.863 178.656C201.254 178.819 201.579 179.031 201.84 179.291C202.107 179.545 202.318 179.88 202.475 180.297C202.559 180.518 202.621 180.759 202.66 181.02C202.699 181.28 202.719 181.563 202.719 181.869V191H201.449V181.879C201.449 181.052 201.254 180.447 200.863 180.062C200.473 179.678 199.893 179.441 199.125 179.35C198.812 179.304 198.393 179.281 197.865 179.281C197.605 179.281 197.309 179.288 196.977 179.301C196.651 179.307 196.29 179.324 195.893 179.35V187.914C195.893 188.246 195.867 188.555 195.814 188.842C195.769 189.122 195.697 189.379 195.6 189.613C195.43 189.997 195.206 190.297 194.926 190.512C194.704 190.681 194.444 190.808 194.145 190.893C193.852 190.977 193.52 191.02 193.148 191.02ZM206.146 191V178.402H207.416V191H206.146ZM215.287 191V182.074C215.287 181.703 215.329 181.361 215.414 181.049C215.505 180.736 215.619 180.486 215.756 180.297C215.906 180.082 216.042 179.913 216.166 179.789C216.29 179.665 216.439 179.555 216.615 179.457H209.604V178.402H218.598V179.34C218.266 179.464 217.956 179.61 217.67 179.779C217.39 179.942 217.162 180.154 216.986 180.414C216.7 180.837 216.557 181.394 216.557 182.084V191H215.287ZM220.814 191L219.75 178.402H220.951L221.566 185.824C222.068 185.701 222.543 185.535 222.992 185.326C223.441 185.118 223.809 184.841 224.096 184.496C224.447 184.079 224.704 183.572 224.867 182.973C225.036 182.374 225.154 181.742 225.219 181.078L225.473 178.402H226.635L226.381 181.078C226.29 181.99 226.146 182.761 225.951 183.393C225.762 184.018 225.479 184.571 225.102 185.053C224.737 185.521 224.281 185.899 223.734 186.186C223.194 186.465 222.52 186.684 221.713 186.84C221.706 186.84 221.697 186.843 221.684 186.85C221.677 186.85 221.671 186.85 221.664 186.85L221.918 189.945H224.682C225.645 189.945 226.54 189.685 227.367 189.164C228.201 188.637 228.887 187.911 229.428 186.986C229.955 186.042 230.277 184.994 230.395 183.842L230.912 178.402H232.084L231.557 183.852C231.485 184.6 231.335 185.307 231.107 185.971C230.886 186.628 230.593 187.25 230.229 187.836C229.851 188.435 229.411 188.962 228.91 189.418C228.415 189.867 227.826 190.229 227.143 190.502C226.765 190.678 226.365 190.805 225.941 190.883C225.518 190.961 225.085 191 224.643 191H220.814ZM244.828 191V181.879C244.828 181.052 244.633 180.447 244.242 180.062C243.852 179.678 243.275 179.441 242.514 179.35C242.351 179.33 242.175 179.314 241.986 179.301C241.804 179.288 241.605 179.281 241.391 179.281C241.15 179.281 240.84 179.288 240.463 179.301C240.085 179.307 239.704 179.32 239.32 179.34C238.936 179.359 238.607 179.379 238.334 179.398V178.305C238.894 178.272 239.405 178.249 239.867 178.236C240.329 178.217 240.749 178.207 241.127 178.207C241.869 178.207 242.462 178.236 242.904 178.295C243.347 178.354 243.77 178.464 244.174 178.627C244.584 178.79 244.923 179.001 245.189 179.262C245.463 179.516 245.681 179.854 245.844 180.277C245.935 180.512 246 180.759 246.039 181.02C246.078 181.28 246.098 181.566 246.098 181.879V191H244.828ZM249.467 191V178.402H250.736V191H249.467ZM259.418 191V181.879C259.418 181.052 259.223 180.447 258.832 180.062C258.441 179.678 257.865 179.441 257.104 179.35C256.941 179.33 256.765 179.314 256.576 179.301C256.394 179.288 256.195 179.281 255.98 179.281C255.74 179.281 255.43 179.288 255.053 179.301C254.675 179.307 254.294 179.32 253.91 179.34C253.526 179.359 253.197 179.379 252.924 179.398V178.305C253.484 178.272 253.995 178.249 254.457 178.236C254.919 178.217 255.339 178.207 255.717 178.207C256.459 178.207 257.051 178.236 257.494 178.295C257.937 178.354 258.36 178.464 258.764 178.627C259.174 178.79 259.512 179.001 259.779 179.262C260.053 179.516 260.271 179.854 260.434 180.277C260.525 180.512 260.59 180.759 260.629 181.02C260.668 181.28 260.688 181.566 260.688 181.879V191H259.418ZM264.008 191.059C263.826 191.059 263.627 191.046 263.412 191.02C263.204 191 262.976 190.974 262.729 190.941L262.924 189.779C263.106 189.825 263.295 189.857 263.49 189.877C263.692 189.896 263.9 189.906 264.115 189.906C264.643 189.906 265.121 189.773 265.551 189.506C265.987 189.232 266.342 188.855 266.615 188.373C266.791 188.054 266.928 187.693 267.025 187.289C267.123 186.885 267.172 186.446 267.172 185.971V181.215C267.172 180.642 267.081 180.18 266.898 179.828C266.723 179.47 266.345 179.291 265.766 179.291C265.557 179.291 265.329 179.307 265.082 179.34C264.841 179.366 264.571 179.408 264.271 179.467V178.363C264.799 178.259 265.336 178.207 265.883 178.207C266.267 178.207 266.605 178.256 266.898 178.354C267.191 178.451 267.436 178.594 267.631 178.783C267.917 179.037 268.122 179.369 268.246 179.779C268.376 180.189 268.441 180.661 268.441 181.195V191H267.396L267.25 188.949H267.172C267.016 189.21 266.863 189.441 266.713 189.643C266.57 189.838 266.439 189.997 266.322 190.121C266.023 190.427 265.678 190.661 265.287 190.824C264.903 190.98 264.477 191.059 264.008 191.059ZM2.05469 213.352V205.402H3.32422V212.092L2.29883 213.352H2.05469ZM10.7363 218.195C10.3522 218.195 9.98438 218.189 9.63281 218.176C9.28125 218.169 8.95247 218.153 8.64648 218.127C8.34701 218.101 8.07682 218.072 7.83594 218.039L7.44531 217.99V216.926C8.00521 216.991 8.55859 217.04 9.10547 217.072C9.65885 217.098 10.2025 217.111 10.7363 217.111C11.2702 217.111 11.7389 217.023 12.1426 216.848C12.5527 216.665 12.888 216.424 13.1484 216.125C13.4089 215.819 13.6204 215.435 13.7832 214.973C13.9525 214.504 14.0697 214.009 14.1348 213.488C14.1673 213.215 14.1901 212.932 14.2031 212.639C14.2161 212.346 14.2227 212.033 14.2227 211.701C14.2227 211.063 14.1901 210.493 14.125 209.992C14.0664 209.491 13.959 209.006 13.8027 208.537C13.6465 208.068 13.4414 207.674 13.1875 207.355C12.9336 207.03 12.6048 206.773 12.2012 206.584C11.9863 206.486 11.7585 206.415 11.5176 206.369C11.2832 206.317 11.0358 206.291 10.7754 206.291C10.248 206.291 9.77604 206.363 9.35938 206.506C8.94922 206.649 8.61393 206.838 8.35352 207.072C8.00846 207.385 7.73503 207.769 7.5332 208.225C7.33138 208.68 7.23047 209.143 7.23047 209.611C7.23047 210.132 7.31185 210.604 7.47461 211.027C7.64388 211.451 7.86849 211.799 8.14844 212.072C8.3763 212.281 8.63346 212.443 8.91992 212.561C9.20638 212.678 9.51888 212.74 9.85742 212.746L10.0625 212.766L9.85742 213.723H9.7207C9.37565 213.716 9.04688 213.671 8.73438 213.586C8.42839 213.501 8.14193 213.378 7.875 213.215C7.64062 213.072 7.42253 212.902 7.2207 212.707C7.01888 212.505 6.8431 212.281 6.69336 212.033C6.49805 211.708 6.34505 211.343 6.23438 210.939C6.13021 210.529 6.07812 210.09 6.07812 209.621C6.07812 208.918 6.20833 208.283 6.46875 207.717C6.73568 207.144 7.08398 206.682 7.51367 206.33C7.97591 205.952 8.47721 205.673 9.01758 205.49C9.56445 205.301 10.1406 205.207 10.7461 205.207C11.2604 205.207 11.7389 205.266 12.1816 205.383C12.6243 205.5 13.0247 205.679 13.3828 205.92C13.6693 206.109 13.9297 206.343 14.1641 206.623C14.3984 206.896 14.6035 207.212 14.7793 207.57C15.0332 208.085 15.2253 208.687 15.3555 209.377C15.4857 210.061 15.5508 210.835 15.5508 211.701C15.5508 212.587 15.4824 213.374 15.3457 214.064C15.209 214.755 15.0137 215.357 14.7598 215.871C14.5645 216.242 14.3366 216.568 14.0762 216.848C13.8223 217.121 13.5391 217.349 13.2266 217.531C12.888 217.759 12.5104 217.925 12.0938 218.029C11.6771 218.14 11.2246 218.195 10.7363 218.195ZM18.4414 218V205.402H19.7109V218H18.4414ZM27.3867 218.195C26.4753 218.195 25.6908 218.007 25.0332 217.629C24.5775 217.375 24.1803 217.03 23.8418 216.594C23.5098 216.151 23.2396 215.617 23.0312 214.992C22.8815 214.536 22.7676 214.032 22.6895 213.479C22.6178 212.925 22.582 212.323 22.582 211.672C22.582 210.852 22.6471 210.113 22.7773 209.455C22.9076 208.791 23.0996 208.205 23.3535 207.697C23.6074 207.189 23.9264 206.76 24.3105 206.408L24.3398 206.379L22.7676 206.447V205.344C23.3665 205.311 23.9329 205.285 24.4668 205.266C25.0072 205.246 25.5215 205.233 26.0098 205.227C26.498 205.214 26.957 205.207 27.3867 205.207C27.9271 205.207 28.4284 205.275 28.8906 205.412C29.3594 205.549 29.776 205.757 30.1406 206.037C30.4531 206.258 30.7298 206.532 30.9707 206.857C31.2181 207.176 31.4264 207.544 31.5957 207.961C31.7975 208.449 31.9505 209.003 32.0547 209.621C32.1589 210.233 32.2109 210.917 32.2109 211.672C32.2109 212.245 32.1784 212.782 32.1133 213.283C32.0547 213.785 31.9668 214.247 31.8496 214.67C31.6543 215.367 31.3809 215.959 31.0293 216.447C30.6842 216.936 30.2676 217.323 29.7793 217.609C29.1087 218 28.3112 218.195 27.3867 218.195ZM27.3867 217.111C27.9271 217.111 28.4023 217.017 28.8125 216.828C29.2292 216.639 29.5645 216.382 29.8184 216.057C30.0983 215.718 30.3132 215.311 30.4629 214.836C30.6126 214.354 30.7168 213.84 30.7754 213.293C30.8405 212.74 30.873 212.199 30.873 211.672C30.873 210.337 30.7396 209.299 30.4727 208.557C30.2057 207.814 29.8477 207.264 29.3984 206.906C29.1576 206.711 28.8678 206.558 28.5293 206.447C28.1908 206.337 27.8359 206.281 27.4648 206.281C27.0938 206.281 26.7715 206.285 26.498 206.291C26.2246 206.298 25.9447 206.314 25.6582 206.34C25.0527 206.939 24.6068 207.668 24.3203 208.527C24.0404 209.38 23.9004 210.428 23.9004 211.672C23.9004 212.701 23.9883 213.583 24.1641 214.318C24.3398 215.048 24.6035 215.627 24.9551 216.057C25.2155 216.382 25.5475 216.639 25.9512 216.828C26.3613 217.017 26.8398 217.111 27.3867 217.111ZM42.8066 218V208.879C42.8066 208.052 42.6146 207.45 42.2305 207.072C41.8464 206.688 41.2734 206.451 40.5117 206.359C40.3555 206.333 40.1504 206.314 39.8965 206.301C39.6491 206.288 39.3626 206.281 39.0371 206.281C38.6725 206.281 38.1615 206.301 37.5039 206.34C36.8529 206.379 36.0456 206.434 35.082 206.506V205.412C35.3815 205.386 35.668 205.367 35.9414 205.354C36.2214 205.334 36.4883 205.318 36.7422 205.305C37.2695 205.272 37.7318 205.249 38.1289 205.236C38.5326 205.217 38.8711 205.207 39.1445 205.207C39.8672 205.207 40.4499 205.236 40.8926 205.295C41.3353 205.354 41.7585 205.464 42.1621 205.627C42.5723 205.79 42.9108 206.001 43.1777 206.262C43.4512 206.522 43.666 206.861 43.8223 207.277C43.9134 207.512 43.9785 207.759 44.0176 208.02C44.0632 208.28 44.0859 208.566 44.0859 208.879V218H42.8066ZM35.082 218V210.119H36.3516V218H35.082ZM52.6797 218V205.412C52.7318 205.406 52.8392 205.399 53.002 205.393C53.1647 205.38 53.3828 205.363 53.6562 205.344C54.2747 205.298 54.8379 205.266 55.3457 205.246C55.86 205.22 56.3158 205.207 56.7129 205.207C57.4551 205.207 58.0475 205.236 58.4902 205.295C58.9329 205.354 59.3561 205.461 59.7598 205.617C60.1699 205.786 60.5085 206.001 60.7754 206.262C61.0488 206.516 61.2637 206.851 61.4199 207.268C61.5111 207.502 61.5762 207.753 61.6152 208.02C61.6608 208.28 61.6836 208.566 61.6836 208.879V218H60.4043V208.879C60.4043 208.046 60.209 207.437 59.8184 207.053C59.4277 206.669 58.8451 206.434 58.0703 206.35C57.9141 206.33 57.7155 206.314 57.4746 206.301C57.2402 206.288 56.9635 206.281 56.6445 206.281C56.3255 206.281 55.9414 206.294 55.4922 206.32C55.043 206.34 54.5286 206.372 53.9492 206.418V218H52.6797ZM68.8418 203.723L68.9785 203.918C68.8809 204.432 68.7507 204.966 68.5879 205.52C68.4316 206.066 68.2526 206.604 68.0508 207.131C67.849 207.652 67.6406 208.146 67.4258 208.615H66.7227C66.8984 208.133 67.0645 207.606 67.2207 207.033C67.377 206.454 67.5137 205.874 67.6309 205.295C67.748 204.715 67.8327 204.191 67.8848 203.723H68.8418ZM65.7363 203.723L65.8633 203.918C65.7721 204.432 65.6452 204.966 65.4824 205.52C65.3197 206.066 65.1374 206.604 64.9355 207.131C64.7402 207.652 64.5352 208.146 64.3203 208.615H63.627C63.7572 208.257 63.8841 207.87 64.0078 207.453C64.1315 207.03 64.2422 206.6 64.3398 206.164C64.444 205.728 64.5319 205.301 64.6035 204.885C64.6816 204.468 64.7402 204.081 64.7793 203.723H65.7363ZM71.0977 218V205.402H72.3672V218H71.0977ZM80.2383 218V209.074C80.2383 208.703 80.2806 208.361 80.3652 208.049C80.4564 207.736 80.5703 207.486 80.707 207.297C80.8568 207.082 80.9935 206.913 81.1172 206.789C81.2409 206.665 81.3906 206.555 81.5664 206.457H74.5547V205.402H83.5488V206.34C83.2168 206.464 82.9076 206.61 82.6211 206.779C82.3411 206.942 82.1133 207.154 81.9375 207.414C81.651 207.837 81.5078 208.394 81.5078 209.084V218H80.2383ZM84.7109 218V216.936H90.9707V208.879C90.9707 208.052 90.7754 207.45 90.3848 207.072C89.9941 206.688 89.4212 206.451 88.666 206.359C88.5033 206.333 88.3145 206.314 88.0996 206.301C87.8848 206.288 87.6406 206.281 87.3672 206.281C87.0807 206.281 86.7161 206.294 86.2734 206.32C85.8372 206.34 85.3132 206.366 84.7012 206.398V205.314C85.2025 205.275 85.6712 205.249 86.1074 205.236C86.5501 205.217 86.9701 205.207 87.3672 205.207C88.0247 205.207 88.5684 205.236 88.998 205.295C89.4342 205.347 89.8542 205.448 90.2578 205.598C90.668 205.754 91.0065 205.956 91.2734 206.203C91.5469 206.451 91.765 206.773 91.9277 207.17C92.0059 207.326 92.0677 207.495 92.1133 207.678C92.1589 207.854 92.1914 208.039 92.2109 208.234C92.2305 208.43 92.2402 208.641 92.2402 208.869V216.936H93.7051V218H84.7109ZM101.059 218V205.402H102.328V218H101.059ZM104.633 218.498V217.434L107.338 217.023C107.533 216.991 107.729 216.955 107.924 216.916C108.119 216.87 108.314 216.818 108.51 216.76L105.512 205.402H106.752L108.236 211.076L109.506 216.369C110.196 216.05 110.808 215.624 111.342 215.09C111.882 214.549 112.322 213.921 112.66 213.205C113.005 212.489 113.22 211.704 113.305 210.852L113.842 205.402H115.014L114.477 210.832C114.424 211.405 114.32 211.955 114.164 212.482C114.008 213.003 113.799 213.501 113.539 213.977C113.285 214.445 112.979 214.895 112.621 215.324C112.074 216.034 111.371 216.63 110.512 217.111C109.659 217.587 108.669 217.906 107.543 218.068C106.983 218.16 106.459 218.238 105.971 218.303C105.489 218.374 105.043 218.439 104.633 218.498ZM117.23 213.352V205.402H118.5V212.092L117.475 213.352H117.23ZM125.912 218.195C125.528 218.195 125.16 218.189 124.809 218.176C124.457 218.169 124.128 218.153 123.822 218.127C123.523 218.101 123.253 218.072 123.012 218.039L122.621 217.99V216.926C123.181 216.991 123.734 217.04 124.281 217.072C124.835 217.098 125.378 217.111 125.912 217.111C126.446 217.111 126.915 217.023 127.318 216.848C127.729 216.665 128.064 216.424 128.324 216.125C128.585 215.819 128.796 215.435 128.959 214.973C129.128 214.504 129.245 214.009 129.311 213.488C129.343 213.215 129.366 212.932 129.379 212.639C129.392 212.346 129.398 212.033 129.398 211.701C129.398 211.063 129.366 210.493 129.301 209.992C129.242 209.491 129.135 209.006 128.979 208.537C128.822 208.068 128.617 207.674 128.363 207.355C128.109 207.03 127.781 206.773 127.377 206.584C127.162 206.486 126.934 206.415 126.693 206.369C126.459 206.317 126.212 206.291 125.951 206.291C125.424 206.291 124.952 206.363 124.535 206.506C124.125 206.649 123.79 206.838 123.529 207.072C123.184 207.385 122.911 207.769 122.709 208.225C122.507 208.68 122.406 209.143 122.406 209.611C122.406 210.132 122.488 210.604 122.65 211.027C122.82 211.451 123.044 211.799 123.324 212.072C123.552 212.281 123.809 212.443 124.096 212.561C124.382 212.678 124.695 212.74 125.033 212.746L125.238 212.766L125.033 213.723H124.896C124.551 213.716 124.223 213.671 123.91 213.586C123.604 213.501 123.318 213.378 123.051 213.215C122.816 213.072 122.598 212.902 122.396 212.707C122.195 212.505 122.019 212.281 121.869 212.033C121.674 211.708 121.521 211.343 121.41 210.939C121.306 210.529 121.254 210.09 121.254 209.621C121.254 208.918 121.384 208.283 121.645 207.717C121.911 207.144 122.26 206.682 122.689 206.33C123.152 205.952 123.653 205.673 124.193 205.49C124.74 205.301 125.316 205.207 125.922 205.207C126.436 205.207 126.915 205.266 127.357 205.383C127.8 205.5 128.201 205.679 128.559 205.92C128.845 206.109 129.105 206.343 129.34 206.623C129.574 206.896 129.779 207.212 129.955 207.57C130.209 208.085 130.401 208.687 130.531 209.377C130.661 210.061 130.727 210.835 130.727 211.701C130.727 212.587 130.658 213.374 130.521 214.064C130.385 214.755 130.189 215.357 129.936 215.871C129.74 216.242 129.512 216.568 129.252 216.848C128.998 217.121 128.715 217.349 128.402 217.531C128.064 217.759 127.686 217.925 127.27 218.029C126.853 218.14 126.4 218.195 125.912 218.195ZM133.617 218V205.402H134.887V218H133.617ZM138.266 213.352V205.402H139.535V212.092L138.51 213.352H138.266ZM142.973 218L141.908 205.402H143.109L143.725 212.824C144.226 212.701 144.701 212.535 145.15 212.326C145.6 212.118 145.967 211.841 146.254 211.496C146.605 211.079 146.863 210.572 147.025 209.973C147.195 209.374 147.312 208.742 147.377 208.078L147.631 205.402H148.793L148.539 208.078C148.448 208.99 148.305 209.761 148.109 210.393C147.921 211.018 147.637 211.571 147.26 212.053C146.895 212.521 146.439 212.899 145.893 213.186C145.352 213.465 144.678 213.684 143.871 213.84C143.865 213.84 143.855 213.843 143.842 213.85C143.835 213.85 143.829 213.85 143.822 213.85L144.076 216.945H146.84C147.803 216.945 148.699 216.685 149.525 216.164C150.359 215.637 151.046 214.911 151.586 213.986C152.113 213.042 152.436 211.994 152.553 210.842L153.07 205.402H154.242L153.715 210.852C153.643 211.6 153.493 212.307 153.266 212.971C153.044 213.628 152.751 214.25 152.387 214.836C152.009 215.435 151.57 215.962 151.068 216.418C150.574 216.867 149.984 217.229 149.301 217.502C148.923 217.678 148.523 217.805 148.1 217.883C147.676 217.961 147.243 218 146.801 218H142.973ZM161.127 218.02C161.029 218.02 160.915 218.01 160.785 217.99C160.661 217.964 160.518 217.935 160.355 217.902V216.887C160.57 216.919 160.808 216.936 161.068 216.936C161.557 216.936 161.934 216.77 162.201 216.438C162.468 216.105 162.602 215.598 162.602 214.914V206.408C162.361 206.421 162.123 206.438 161.889 206.457C161.654 206.477 161.417 206.493 161.176 206.506V205.412C161.827 205.367 162.419 205.331 162.953 205.305C163.487 205.272 163.969 205.249 164.398 205.236C164.835 205.217 165.219 205.207 165.551 205.207C166.143 205.207 166.632 205.22 167.016 205.246C167.4 205.272 167.732 205.318 168.012 205.383C168.292 205.448 168.568 205.539 168.842 205.656C169.232 205.819 169.558 206.031 169.818 206.291C170.085 206.545 170.297 206.88 170.453 207.297C170.538 207.518 170.6 207.759 170.639 208.02C170.678 208.28 170.697 208.563 170.697 208.869V218H169.428V208.879C169.428 208.052 169.232 207.447 168.842 207.062C168.451 206.678 167.872 206.441 167.104 206.35C166.791 206.304 166.371 206.281 165.844 206.281C165.583 206.281 165.287 206.288 164.955 206.301C164.63 206.307 164.268 206.324 163.871 206.35V214.914C163.871 215.246 163.845 215.555 163.793 215.842C163.747 216.122 163.676 216.379 163.578 216.613C163.409 216.997 163.184 217.297 162.904 217.512C162.683 217.681 162.423 217.808 162.123 217.893C161.83 217.977 161.498 218.02 161.127 218.02ZM174.125 218V205.402H175.395V218H174.125ZM183.266 218V209.074C183.266 208.703 183.308 208.361 183.393 208.049C183.484 207.736 183.598 207.486 183.734 207.297C183.884 207.082 184.021 206.913 184.145 206.789C184.268 206.665 184.418 206.555 184.594 206.457H177.582V205.402H186.576V206.34C186.244 206.464 185.935 206.61 185.648 206.779C185.368 206.942 185.141 207.154 184.965 207.414C184.678 207.837 184.535 208.394 184.535 209.084V218H183.266ZM188.793 218L187.729 205.402H188.93L189.545 212.824C190.046 212.701 190.521 212.535 190.971 212.326C191.42 212.118 191.788 211.841 192.074 211.496C192.426 211.079 192.683 210.572 192.846 209.973C193.015 209.374 193.132 208.742 193.197 208.078L193.451 205.402H194.613L194.359 208.078C194.268 208.99 194.125 209.761 193.93 210.393C193.741 211.018 193.458 211.571 193.08 212.053C192.715 212.521 192.26 212.899 191.713 213.186C191.173 213.465 190.499 213.684 189.691 213.84C189.685 213.84 189.675 213.843 189.662 213.85C189.656 213.85 189.649 213.85 189.643 213.85L189.896 216.945H192.66C193.624 216.945 194.519 216.685 195.346 216.164C196.179 215.637 196.866 214.911 197.406 213.986C197.934 213.042 198.256 211.994 198.373 210.842L198.891 205.402H200.062L199.535 210.852C199.464 211.6 199.314 212.307 199.086 212.971C198.865 213.628 198.572 214.25 198.207 214.836C197.829 215.435 197.39 215.962 196.889 216.418C196.394 216.867 195.805 217.229 195.121 217.502C194.743 217.678 194.343 217.805 193.92 217.883C193.497 217.961 193.064 218 192.621 218H188.793ZM210.15 218V208.879C210.15 208.052 209.958 207.45 209.574 207.072C209.19 206.688 208.617 206.451 207.855 206.359C207.699 206.333 207.494 206.314 207.24 206.301C206.993 206.288 206.706 206.281 206.381 206.281C206.016 206.281 205.505 206.301 204.848 206.34C204.197 206.379 203.389 206.434 202.426 206.506V205.412C202.725 205.386 203.012 205.367 203.285 205.354C203.565 205.334 203.832 205.318 204.086 205.305C204.613 205.272 205.076 205.249 205.473 205.236C205.876 205.217 206.215 205.207 206.488 205.207C207.211 205.207 207.794 205.236 208.236 205.295C208.679 205.354 209.102 205.464 209.506 205.627C209.916 205.79 210.255 206.001 210.521 206.262C210.795 206.522 211.01 206.861 211.166 207.277C211.257 207.512 211.322 207.759 211.361 208.02C211.407 208.28 211.43 208.566 211.43 208.879V218H210.15ZM202.426 218V210.119H203.695V218H202.426ZM219.936 218V205.412C219.988 205.406 220.095 205.399 220.258 205.393C220.421 205.38 220.635 205.363 220.902 205.344C221.527 205.298 222.094 205.266 222.602 205.246C223.116 205.22 223.572 205.207 223.969 205.207C224.717 205.207 225.313 205.236 225.756 205.295C226.205 205.354 226.635 205.467 227.045 205.637C227.442 205.799 227.771 206.008 228.031 206.262C228.298 206.509 228.513 206.838 228.676 207.248C228.767 207.469 228.832 207.71 228.871 207.971C228.917 208.231 228.939 208.514 228.939 208.82V218H219.936ZM221.215 216.936H227.66V208.811C227.66 208.342 227.598 207.951 227.475 207.639C227.351 207.326 227.162 207.076 226.908 206.887C226.719 206.73 226.495 206.61 226.234 206.525C225.974 206.441 225.681 206.382 225.355 206.35C225.193 206.324 224.991 206.307 224.75 206.301C224.509 206.288 224.226 206.281 223.9 206.281C223.581 206.281 223.197 206.294 222.748 206.32C222.299 206.34 221.788 206.372 221.215 206.418V216.936ZM240.053 218V208.879C240.053 208.052 239.861 207.45 239.477 207.072C239.092 206.688 238.52 206.451 237.758 206.359C237.602 206.333 237.396 206.314 237.143 206.301C236.895 206.288 236.609 206.281 236.283 206.281C235.919 206.281 235.408 206.301 234.75 206.34C234.099 206.379 233.292 206.434 232.328 206.506V205.412C232.628 205.386 232.914 205.367 233.188 205.354C233.467 205.334 233.734 205.318 233.988 205.305C234.516 205.272 234.978 205.249 235.375 205.236C235.779 205.217 236.117 205.207 236.391 205.207C237.113 205.207 237.696 205.236 238.139 205.295C238.581 205.354 239.005 205.464 239.408 205.627C239.818 205.79 240.157 206.001 240.424 206.262C240.697 206.522 240.912 206.861 241.068 207.277C241.16 207.512 241.225 207.759 241.264 208.02C241.309 208.28 241.332 208.566 241.332 208.879V218H240.053ZM232.328 218V210.119H233.598V218H232.328ZM257.65 218V208.879C257.65 208.052 257.458 207.45 257.074 207.072C256.69 206.688 256.117 206.451 255.355 206.359C255.199 206.333 254.994 206.314 254.74 206.301C254.493 206.288 254.206 206.281 253.881 206.281C253.516 206.281 253.005 206.301 252.348 206.34C251.697 206.379 250.889 206.434 249.926 206.506V205.412C250.225 205.386 250.512 205.367 250.785 205.354C251.065 205.334 251.332 205.318 251.586 205.305C252.113 205.272 252.576 205.249 252.973 205.236C253.376 205.217 253.715 205.207 253.988 205.207C254.711 205.207 255.294 205.236 255.736 205.295C256.179 205.354 256.602 205.464 257.006 205.627C257.416 205.79 257.755 206.001 258.021 206.262C258.295 206.522 258.51 206.861 258.666 207.277C258.757 207.512 258.822 207.759 258.861 208.02C258.907 208.28 258.93 208.566 258.93 208.879V218H257.65ZM249.926 218V210.119H251.195V218H249.926ZM265.082 218L265.98 213.176L267.904 206.477H261.059V202.697H262.328V205.344H269.125V206.574L267.27 213.078L266.361 218H265.082ZM270.668 218V216.936H276.928V208.879C276.928 208.052 276.732 207.45 276.342 207.072C275.951 206.688 275.378 206.451 274.623 206.359C274.46 206.333 274.271 206.314 274.057 206.301C273.842 206.288 273.598 206.281 273.324 206.281C273.038 206.281 272.673 206.294 272.23 206.32C271.794 206.34 271.27 206.366 270.658 206.398V205.314C271.16 205.275 271.628 205.249 272.064 205.236C272.507 205.217 272.927 205.207 273.324 205.207C273.982 205.207 274.525 205.236 274.955 205.295C275.391 205.347 275.811 205.448 276.215 205.598C276.625 205.754 276.964 205.956 277.23 206.203C277.504 206.451 277.722 206.773 277.885 207.17C277.963 207.326 278.025 207.495 278.07 207.678C278.116 207.854 278.148 208.039 278.168 208.234C278.188 208.43 278.197 208.641 278.197 208.869V216.936H279.662V218H270.668ZM286.518 218.195C286.062 218.195 285.629 218.146 285.219 218.049C284.815 217.958 284.447 217.811 284.115 217.609C283.751 217.401 283.425 217.131 283.139 216.799C282.852 216.467 282.605 216.073 282.396 215.617C282.169 215.109 281.996 214.53 281.879 213.879C281.768 213.228 281.713 212.495 281.713 211.682V205.402H282.992V211.682C282.992 212.71 283.083 213.592 283.266 214.328C283.454 215.064 283.731 215.65 284.096 216.086C284.356 216.405 284.691 216.656 285.102 216.838C285.512 217.014 285.98 217.102 286.508 217.102C287.055 217.102 287.533 217.01 287.943 216.828C288.354 216.639 288.689 216.385 288.949 216.066C289.379 215.552 289.662 214.901 289.799 214.113C289.942 213.326 290.014 212.515 290.014 211.682C290.014 210.868 289.945 210.083 289.809 209.328C289.678 208.573 289.421 207.932 289.037 207.404C288.738 207.014 288.367 206.73 287.924 206.555C287.488 206.379 287.019 206.291 286.518 206.291C286.381 206.291 286.241 206.301 286.098 206.32C285.954 206.333 285.811 206.353 285.668 206.379V205.285C285.831 205.259 285.993 205.24 286.156 205.227C286.319 205.214 286.479 205.207 286.635 205.207C287.084 205.207 287.504 205.253 287.895 205.344C288.292 205.428 288.653 205.568 288.979 205.764C289.356 205.979 289.688 206.258 289.975 206.604C290.268 206.949 290.512 207.362 290.707 207.844C290.909 208.339 291.062 208.905 291.166 209.543C291.277 210.174 291.332 210.887 291.332 211.682C291.332 212.346 291.293 212.958 291.215 213.518C291.137 214.071 291.02 214.579 290.863 215.041C290.674 215.627 290.424 216.128 290.111 216.545C289.799 216.962 289.428 217.303 288.998 217.57C288.653 217.779 288.272 217.935 287.855 218.039C287.439 218.143 286.993 218.195 286.518 218.195ZM293.207 218V216.936H299.467V208.879C299.467 208.052 299.271 207.45 298.881 207.072C298.49 206.688 297.917 206.451 297.162 206.359C296.999 206.333 296.811 206.314 296.596 206.301C296.381 206.288 296.137 206.281 295.863 206.281C295.577 206.281 295.212 206.294 294.77 206.32C294.333 206.34 293.809 206.366 293.197 206.398V205.314C293.699 205.275 294.167 205.249 294.604 205.236C295.046 205.217 295.466 205.207 295.863 205.207C296.521 205.207 297.064 205.236 297.494 205.295C297.93 205.347 298.35 205.448 298.754 205.598C299.164 205.754 299.503 205.956 299.77 206.203C300.043 206.451 300.261 206.773 300.424 207.17C300.502 207.326 300.564 207.495 300.609 207.678C300.655 207.854 300.688 208.039 300.707 208.234C300.727 208.43 300.736 208.641 300.736 208.869V216.936H302.201V218H293.207ZM309.555 218V205.402H310.824V218H309.555ZM313.129 218.498V217.434L315.834 217.023C316.029 216.991 316.225 216.955 316.42 216.916C316.615 216.87 316.811 216.818 317.006 216.76L314.008 205.402H315.248L316.732 211.076L318.002 216.369C318.692 216.05 319.304 215.624 319.838 215.09C320.378 214.549 320.818 213.921 321.156 213.205C321.501 212.489 321.716 211.704 321.801 210.852L322.338 205.402H323.51L322.973 210.832C322.921 211.405 322.816 211.955 322.66 212.482C322.504 213.003 322.296 213.501 322.035 213.977C321.781 214.445 321.475 214.895 321.117 215.324C320.57 216.034 319.867 216.63 319.008 217.111C318.155 217.587 317.165 217.906 316.039 218.068C315.479 218.16 314.955 218.238 314.467 218.303C313.985 218.374 313.539 218.439 313.129 218.498ZM325.727 213.352V205.402H326.996V212.092L325.971 213.352H325.727ZM334.408 218.195C334.024 218.195 333.656 218.189 333.305 218.176C332.953 218.169 332.624 218.153 332.318 218.127C332.019 218.101 331.749 218.072 331.508 218.039L331.117 217.99V216.926C331.677 216.991 332.23 217.04 332.777 217.072C333.331 217.098 333.874 217.111 334.408 217.111C334.942 217.111 335.411 217.023 335.814 216.848C336.225 216.665 336.56 216.424 336.82 216.125C337.081 215.819 337.292 215.435 337.455 214.973C337.624 214.504 337.742 214.009 337.807 213.488C337.839 213.215 337.862 212.932 337.875 212.639C337.888 212.346 337.895 212.033 337.895 211.701C337.895 211.063 337.862 210.493 337.797 209.992C337.738 209.491 337.631 209.006 337.475 208.537C337.318 208.068 337.113 207.674 336.859 207.355C336.605 207.03 336.277 206.773 335.873 206.584C335.658 206.486 335.43 206.415 335.189 206.369C334.955 206.317 334.708 206.291 334.447 206.291C333.92 206.291 333.448 206.363 333.031 206.506C332.621 206.649 332.286 206.838 332.025 207.072C331.68 207.385 331.407 207.769 331.205 208.225C331.003 208.68 330.902 209.143 330.902 209.611C330.902 210.132 330.984 210.604 331.146 211.027C331.316 211.451 331.54 211.799 331.82 212.072C332.048 212.281 332.305 212.443 332.592 212.561C332.878 212.678 333.191 212.74 333.529 212.746L333.734 212.766L333.529 213.723H333.393C333.048 213.716 332.719 213.671 332.406 213.586C332.1 213.501 331.814 213.378 331.547 213.215C331.312 213.072 331.094 212.902 330.893 212.707C330.691 212.505 330.515 212.281 330.365 212.033C330.17 211.708 330.017 211.343 329.906 210.939C329.802 210.529 329.75 210.09 329.75 209.621C329.75 208.918 329.88 208.283 330.141 207.717C330.408 207.144 330.756 206.682 331.186 206.33C331.648 205.952 332.149 205.673 332.689 205.49C333.236 205.301 333.812 205.207 334.418 205.207C334.932 205.207 335.411 205.266 335.854 205.383C336.296 205.5 336.697 205.679 337.055 205.92C337.341 206.109 337.602 206.343 337.836 206.623C338.07 206.896 338.275 207.212 338.451 207.57C338.705 208.085 338.897 208.687 339.027 209.377C339.158 210.061 339.223 210.835 339.223 211.701C339.223 212.587 339.154 213.374 339.018 214.064C338.881 214.755 338.686 215.357 338.432 215.871C338.236 216.242 338.008 216.568 337.748 216.848C337.494 217.121 337.211 217.349 336.898 217.531C336.56 217.759 336.182 217.925 335.766 218.029C335.349 218.14 334.896 218.195 334.408 218.195ZM342.113 218V205.402H343.383V218H342.113ZM346.762 213.352V205.402H348.031V212.092L347.006 213.352H346.762ZM351.469 218L350.404 205.402H351.605L352.221 212.824C352.722 212.701 353.197 212.535 353.646 212.326C354.096 212.118 354.464 211.841 354.75 211.496C355.102 211.079 355.359 210.572 355.521 209.973C355.691 209.374 355.808 208.742 355.873 208.078L356.127 205.402H357.289L357.035 208.078C356.944 208.99 356.801 209.761 356.605 210.393C356.417 211.018 356.133 211.571 355.756 212.053C355.391 212.521 354.936 212.899 354.389 213.186C353.848 213.465 353.174 213.684 352.367 213.84C352.361 213.84 352.351 213.843 352.338 213.85C352.331 213.85 352.325 213.85 352.318 213.85L352.572 216.945H355.336C356.299 216.945 357.195 216.685 358.021 216.164C358.855 215.637 359.542 214.911 360.082 213.986C360.609 213.042 360.932 211.994 361.049 210.842L361.566 205.402H362.738L362.211 210.852C362.139 211.6 361.99 212.307 361.762 212.971C361.54 213.628 361.247 214.25 360.883 214.836C360.505 215.435 360.066 215.962 359.564 216.418C359.07 216.867 358.48 217.229 357.797 217.502C357.419 217.678 357.019 217.805 356.596 217.883C356.173 217.961 355.74 218 355.297 218H351.469ZM369.623 218.02C369.525 218.02 369.411 218.01 369.281 217.99C369.158 217.964 369.014 217.935 368.852 217.902V216.887C369.066 216.919 369.304 216.936 369.564 216.936C370.053 216.936 370.43 216.77 370.697 216.438C370.964 216.105 371.098 215.598 371.098 214.914V206.408C370.857 206.421 370.619 206.438 370.385 206.457C370.15 206.477 369.913 206.493 369.672 206.506V205.412C370.323 205.367 370.915 205.331 371.449 205.305C371.983 205.272 372.465 205.249 372.895 205.236C373.331 205.217 373.715 205.207 374.047 205.207C374.639 205.207 375.128 205.22 375.512 205.246C375.896 205.272 376.228 205.318 376.508 205.383C376.788 205.448 377.064 205.539 377.338 205.656C377.729 205.819 378.054 206.031 378.314 206.291C378.581 206.545 378.793 206.88 378.949 207.297C379.034 207.518 379.096 207.759 379.135 208.02C379.174 208.28 379.193 208.563 379.193 208.869V218H377.924V208.879C377.924 208.052 377.729 207.447 377.338 207.062C376.947 206.678 376.368 206.441 375.6 206.35C375.287 206.304 374.867 206.281 374.34 206.281C374.079 206.281 373.783 206.288 373.451 206.301C373.126 206.307 372.764 206.324 372.367 206.35V214.914C372.367 215.246 372.341 215.555 372.289 215.842C372.243 216.122 372.172 216.379 372.074 216.613C371.905 216.997 371.68 217.297 371.4 217.512C371.179 217.681 370.919 217.808 370.619 217.893C370.326 217.977 369.994 218.02 369.623 218.02ZM382.621 218V205.402H383.891V218H382.621ZM391.762 218V209.074C391.762 208.703 391.804 208.361 391.889 208.049C391.98 207.736 392.094 207.486 392.23 207.297C392.38 207.082 392.517 206.913 392.641 206.789C392.764 206.665 392.914 206.555 393.09 206.457H386.078V205.402H395.072V206.34C394.74 206.464 394.431 206.61 394.145 206.779C393.865 206.942 393.637 207.154 393.461 207.414C393.174 207.837 393.031 208.394 393.031 209.084V218H391.762ZM397.289 218L396.225 205.402H397.426L398.041 212.824C398.542 212.701 399.018 212.535 399.467 212.326C399.916 212.118 400.284 211.841 400.57 211.496C400.922 211.079 401.179 210.572 401.342 209.973C401.511 209.374 401.628 208.742 401.693 208.078L401.947 205.402H403.109L402.855 208.078C402.764 208.99 402.621 209.761 402.426 210.393C402.237 211.018 401.954 211.571 401.576 212.053C401.212 212.521 400.756 212.899 400.209 213.186C399.669 213.465 398.995 213.684 398.188 213.84C398.181 213.84 398.171 213.843 398.158 213.85C398.152 213.85 398.145 213.85 398.139 213.85L398.393 216.945H401.156C402.12 216.945 403.015 216.685 403.842 216.164C404.675 215.637 405.362 214.911 405.902 213.986C406.43 213.042 406.752 211.994 406.869 210.842L407.387 205.402H408.559L408.031 210.852C407.96 211.6 407.81 212.307 407.582 212.971C407.361 213.628 407.068 214.25 406.703 214.836C406.326 215.435 405.886 215.962 405.385 216.418C404.89 216.867 404.301 217.229 403.617 217.502C403.24 217.678 402.839 217.805 402.416 217.883C401.993 217.961 401.56 218 401.117 218H397.289ZM418.646 218V208.879C418.646 208.052 418.454 207.45 418.07 207.072C417.686 206.688 417.113 206.451 416.352 206.359C416.195 206.333 415.99 206.314 415.736 206.301C415.489 206.288 415.202 206.281 414.877 206.281C414.512 206.281 414.001 206.301 413.344 206.34C412.693 206.379 411.885 206.434 410.922 206.506V205.412C411.221 205.386 411.508 205.367 411.781 205.354C412.061 205.334 412.328 205.318 412.582 205.305C413.109 205.272 413.572 205.249 413.969 205.236C414.372 205.217 414.711 205.207 414.984 205.207C415.707 205.207 416.29 205.236 416.732 205.295C417.175 205.354 417.598 205.464 418.002 205.627C418.412 205.79 418.751 206.001 419.018 206.262C419.291 206.522 419.506 206.861 419.662 207.277C419.753 207.512 419.818 207.759 419.857 208.02C419.903 208.28 419.926 208.566 419.926 208.879V218H418.646ZM410.922 218V210.119H412.191V218H410.922Z" fill="#002A78"/>
<g opacity="0.5">
<path d="M211.001 157.667C250.581 157.667 282.667 125.58 282.667 86C282.667 46.4196 250.581 14.3334 211.001 14.3334C171.42 14.3334 139.334 46.4196 139.334 86C139.334 125.58 171.42 157.667 211.001 157.667Z" stroke="#002A78" stroke-width="2" stroke-linecap="round" stroke-linejoin="round"/>
<path d="M182.334 86H239.667" stroke="#002A78" stroke-width="2" stroke-linecap="round" stroke-linejoin="round"/>
<path d="M211 57.3334V114.667" stroke="#002A78" stroke-width="2" stroke-linecap="round" stroke-linejoin="round"/>
</g>
</svg>
