<svg width="19" height="23" viewBox="0 0 19 23" fill="none" xmlns="http://www.w3.org/2000/svg">
<path d="M12.3542 8.37506L11.9937 17.7501M7.00625 17.7501L6.64583 8.37506M17.0292 5.0313C17.3854 5.08547 17.7396 5.14276 18.0937 5.20422M17.0292 5.0313L15.9167 19.4928C15.8713 20.0815 15.6053 20.6315 15.1719 21.0326C14.7385 21.4337 14.1697 21.6565 13.5792 21.6563H5.42083C4.83031 21.6565 4.26148 21.4337 3.8281 21.0326C3.39472 20.6315 3.12874 20.0815 3.08333 19.4928L1.97083 5.0313M17.0292 5.0313C15.8269 4.84955 14.6185 4.71161 13.4062 4.61776M1.97083 5.0313C1.61458 5.08443 1.26042 5.14172 0.90625 5.20318M1.97083 5.0313C3.17306 4.84955 4.38149 4.71162 5.59375 4.61776M13.4062 4.61776V3.6636C13.4062 2.43443 12.4583 1.40943 11.2292 1.37089C10.0767 1.33405 8.92332 1.33405 7.77083 1.37089C6.54167 1.40943 5.59375 2.43547 5.59375 3.6636V4.61776M13.4062 4.61776C10.806 4.4168 8.19404 4.4168 5.59375 4.61776" stroke="#B00000" stroke-width="1.38889" stroke-linecap="round" stroke-linejoin="round"/>
</svg>
