<svg width="18" height="18" viewBox="0 0 18 18" fill="none" xmlns="http://www.w3.org/2000/svg">
<path d="M4.1875 0.75V2.8125M13.8125 0.75V2.8125M0.75 15.1875V4.875C0.75 4.32799 0.967298 3.80339 1.35409 3.41659C1.74089 3.0298 2.26549 2.8125 2.8125 2.8125H15.1875C15.7345 2.8125 16.2591 3.0298 16.6459 3.41659C17.0327 3.80339 17.25 4.32799 17.25 4.875V15.1875M0.75 15.1875C0.75 15.7345 0.967298 16.2591 1.35409 16.6459C1.74089 17.0327 2.26549 17.25 2.8125 17.25H15.1875C15.7345 17.25 16.2591 17.0327 16.6459 16.6459C17.0327 16.2591 17.25 15.7345 17.25 15.1875M0.75 15.1875V8.3125C0.75 7.76549 0.967298 7.24089 1.35409 6.85409C1.74089 6.4673 2.26549 6.25 2.8125 6.25H15.1875C15.7345 6.25 16.2591 6.4673 16.6459 6.85409C17.0327 7.24089 17.25 7.76549 17.25 8.3125V15.1875M9 9.6875H9.00733V9.69483H9V9.6875ZM9 11.75H9.00733V11.7573H9V11.75ZM9 13.8125H9.00733V13.8198H9V13.8125ZM6.9375 11.75H6.94483V11.7573H6.9375V11.75ZM6.9375 13.8125H6.94483V13.8198H6.9375V13.8125ZM4.875 11.75H4.88233V11.7573H4.875V11.75ZM4.875 13.8125H4.88233V13.8198H4.875V13.8125ZM11.0625 9.6875H11.0698V9.69483H11.0625V9.6875ZM11.0625 11.75H11.0698V11.7573H11.0625V11.75ZM11.0625 13.8125H11.0698V13.8198H11.0625V13.8125ZM13.125 9.6875H13.1323V9.69483H13.125V9.6875ZM13.125 11.75H13.1323V11.7573H13.125V11.75Z" stroke="#002A78" stroke-linecap="round" stroke-linejoin="round"/>
</svg>
