<svg width="22" height="21" viewBox="0 0 22 21" fill="none" xmlns="http://www.w3.org/2000/svg">
<path d="M10.6252 1.64485C10.6692 1.53738 10.7443 1.44545 10.8407 1.38075C10.9372 1.31604 11.0507 1.28149 11.1668 1.28149C11.283 1.28149 11.3965 1.31604 11.493 1.38075C11.5894 1.44545 11.6644 1.53738 11.7085 1.64485L13.922 6.96881C13.9635 7.06843 14.0316 7.15469 14.1189 7.2181C14.2062 7.2815 14.3093 7.3196 14.4168 7.32819L20.1648 7.7886C20.6845 7.83027 20.895 8.47923 20.4991 8.81777L16.12 12.5699C16.0381 12.6398 15.9772 12.731 15.9437 12.8333C15.9103 12.9357 15.9057 13.0453 15.9304 13.1501L17.2689 18.7594C17.2958 18.872 17.2888 18.99 17.2487 19.0985C17.2085 19.207 17.1372 19.3012 17.0435 19.3692C16.9499 19.4372 16.8382 19.476 16.7226 19.4805C16.607 19.4851 16.4926 19.4553 16.3939 19.3949L11.472 16.3896C11.3801 16.3335 11.2745 16.3038 11.1668 16.3038C11.0591 16.3038 10.9535 16.3335 10.8616 16.3896L5.93975 19.3959C5.84106 19.4563 5.72668 19.4861 5.61106 19.4816C5.49544 19.477 5.38377 19.4383 5.29014 19.3703C5.19651 19.3023 5.12513 19.2081 5.08502 19.0995C5.0449 18.991 5.03785 18.873 5.06475 18.7605L6.4033 13.1501C6.42812 13.0453 6.42356 12.9357 6.39011 12.8333C6.35666 12.7309 6.29562 12.6398 6.21371 12.5699L1.83455 8.81777C1.74636 8.7426 1.68247 8.64294 1.65096 8.53143C1.61945 8.41992 1.62175 8.30157 1.65756 8.19136C1.69336 8.08116 1.76107 7.98406 1.8521 7.91236C1.94313 7.84066 2.05339 7.79759 2.16892 7.7886L7.91684 7.32819C8.02439 7.3196 8.12748 7.2815 8.21478 7.2181C8.30208 7.15469 8.37019 7.06843 8.41163 6.96881L10.6252 1.64485Z" stroke="#002A78" stroke-width="1.38889" stroke-linecap="round" stroke-linejoin="round"/>
</svg>



