<svg width="18" height="18" viewBox="0 0 18 18" fill="none" xmlns="http://www.w3.org/2000/svg">
<path d="M13.0517 2.73913L14.4575 1.33246C14.7506 1.0394 15.148 0.874756 15.5625 0.874756C15.977 0.874756 16.3744 1.0394 16.6675 1.33246C16.9606 1.62553 17.1252 2.02301 17.1252 2.43746C17.1252 2.85192 16.9606 3.2494 16.6675 3.54246L7.81833 12.3916C7.37777 12.8319 6.83447 13.1556 6.2375 13.3333L4 14L4.66667 11.7625C4.8444 11.1655 5.16803 10.6222 5.60833 10.1816L13.0517 2.73913ZM13.0517 2.73913L15.25 4.93746M14 10.6666V14.625C14 15.1222 13.8025 15.5992 13.4508 15.9508C13.0992 16.3024 12.6223 16.5 12.125 16.5H3.375C2.87772 16.5 2.40081 16.3024 2.04917 15.9508C1.69754 15.5992 1.5 15.1222 1.5 14.625V5.87496C1.5 5.37768 1.69754 4.90077 2.04917 4.54914C2.40081 4.19751 2.87772 3.99996 3.375 3.99996H7.33333" stroke="white" stroke-width="1.25" stroke-linecap="round" stroke-linejoin="round"/>
</svg>

