<svg width="673" height="623" viewBox="0 0 673 623" fill="none" xmlns="http://www.w3.org/2000/svg">
<mask id="mask0_64_146" style="mask-type:alpha" maskUnits="userSpaceOnUse" x="-1" y="0" width="657" height="616">
<path d="M-0.000244141 360.314L180.035 268.61L309.366 522.519L129.331 614.223L-0.000244141 360.314Z" fill="#D9D9D9"/>
<path d="M143.699 137.789L412.31 0.967468L655.683 478.769L387.073 615.59L143.699 137.789Z" fill="#D9D9D9"/>
</mask>
<g mask="url(#mask0_64_146)">
<mask id="mask1_64_146" style="mask-type:alpha" maskUnits="userSpaceOnUse" x="30" y="2" width="686" height="700">
<path d="M112.879 2.2912L715.38 80.2896L676.618 379.706L74.1176 301.707L112.879 2.2912Z" fill="#D9D9D9"/>
<path d="M69.2745 323.762L671.775 401.761L633.013 701.177L30.5127 623.178L69.2745 323.762Z" fill="#D9D9D9"/>
</mask>
<g mask="url(#mask1_64_146)">
<path d="M277.203 386.222L359.776 261.93L429.355 386.222H277.203Z" stroke="black" stroke-width="6.35888"/>
<path d="M401.851 78.5664H331.481L204.184 260.36L188.272 283.085L187.278 284.505L186.283 285.925L184.294 288.766L180.316 294.447L172.36 305.809L140.536 351.257L76.8879 442.154L103.344 491.684L556.018 499.999L595.289 440.246L401.851 78.5664Z" stroke="black" stroke-width="4.52333"/>
<path d="M103.344 491.645L86.3163 459.814L76.7783 441.985L462.972 446.95L353.758 251.238L395.918 191.083L555.998 499.568L103.344 491.645Z" fill="url(#paint0_linear_64_146)"/>
<path fill-rule="evenodd" clip-rule="evenodd" d="M76.7983 441.98L103.364 491.641L556.018 499.564L393.961 191.41L353.778 251.234L462.992 446.946L76.7983 441.98ZM359.923 251.904L471.636 452.093L85.2661 447.126L106.414 486.657L547.559 494.379L392.914 200.185L359.923 251.904Z" fill="black"/>
<path d="M595.215 440.192L556.024 499.562L397.91 203.992L251.506 425.772L179.288 403.035L401.882 78.6818L595.215 440.192Z" fill="url(#paint1_linear_64_146)"/>
<path d="M595.215 440.192L556.024 499.562L397.91 203.992L251.506 425.772L179.288 403.035L401.882 78.6818L595.215 440.192Z" fill="url(#paint2_linear_64_146)"/>
<path fill-rule="evenodd" clip-rule="evenodd" d="M556.024 499.562L595.215 440.192L401.882 78.6818L179.288 403.035L251.506 425.772L397.91 203.992L556.024 499.562ZM249.394 419.824L398.364 194.158L556.478 489.727L589.356 439.921L401.347 88.3672L187.296 400.273L249.394 419.824Z" fill="black"/>
<path d="M464.181 447.474L76.8102 442.373L331.387 78.7526L401.873 78.7527L190.715 386.565L429.354 386.565L464.181 447.474Z" fill="url(#paint3_linear_64_146)"/>
<path d="M464.181 447.474L76.8102 442.373L331.387 78.7526L401.873 78.7527L190.715 386.565L429.354 386.565L464.181 447.474Z" fill="url(#paint4_linear_64_146)"/>
<path d="M464.181 447.474L76.8102 442.373L331.387 78.7526L401.873 78.7527L190.715 386.565L429.354 386.565L464.181 447.474Z" fill="url(#paint5_linear_64_146)"/>
<path fill-rule="evenodd" clip-rule="evenodd" d="M401.873 78.7527L331.387 78.7526L76.8102 442.373L464.181 447.474L429.354 386.565L190.715 386.565L401.873 78.7527ZM426.43 391.605L181.147 391.605L392.305 83.792L334.011 83.7919L86.4018 437.459L455.429 442.319L426.43 391.605Z" fill="black"/>
<path d="M186.712 290.419L289.118 492.713" stroke="black" stroke-width="4.45777"/>
<path d="M209.139 255.564L330.154 495.184" stroke="black" stroke-width="4.45777"/>
<path d="M186.361 283.794L294.562 495.986" stroke="black" stroke-width="2.62222"/>
<path d="M204.795 255.377L328.582 497.589" stroke="black" stroke-width="2.62222"/>
<path d="M170.289 313.378L199.842 317.372" stroke="black" stroke-width="10.1825"/>
<path d="M151.917 336.54L219.009 346.125" stroke="black" stroke-width="10.1825"/>
<path d="M238.179 320.565L318.051 330.948" stroke="black" stroke-width="10.1825"/>
<path d="M402.715 339.736L548.88 359.704" stroke="black" stroke-width="10.1825"/>
<path d="M423.481 373.283L569.646 391.653" stroke="black" stroke-width="10.1825"/>
<path d="M247.764 347.723L298.882 354.112" stroke="black" stroke-width="10.1825"/>
</g>
</g>
<path fill-rule="evenodd" clip-rule="evenodd" d="M126.919 140.113L235.316 196.953L231.872 203.52L143.808 157.342L255.719 381.512L367.63 605.682L397.237 543.16L397.247 543.138L411.126 514.076L417.817 517.271L403.922 546.367L367.721 622.465L126.919 140.113Z" fill="black"/>
<path d="M529.345 286.972L522.629 283.83L582.151 156.574L484.4 203.578L481.186 196.895L597.677 140.881L529.345 286.972Z" fill="black"/>
<path d="M164.796 278.021L52.9756 312.366L660 389.841L546.582 317.158" stroke="black" stroke-width="5.81859" stroke-miterlimit="16" stroke-linecap="square"/>
<path d="M148.728 545.946V522.486C148.728 520.856 148.3 519.634 147.445 518.82C146.63 518.005 145.49 517.598 144.023 517.598H126.55V508.922H144.512C149.4 508.922 153.065 510.042 155.509 512.283C157.994 514.523 159.236 517.863 159.236 522.302V545.946H148.728ZM120.135 545.946L121.235 537.271H123.434C124.167 537.271 124.738 537.148 125.145 536.904C125.593 536.619 125.939 536.212 126.184 535.682C126.428 535.112 126.55 534.44 126.55 533.666V510.877H137.059V533.238C137.059 537.393 136.081 540.549 134.126 542.708C132.212 544.867 129.381 545.946 125.634 545.946H120.135ZM120.99 517.598L122.09 508.922H132.537V517.598H120.99ZM188.401 502.996C188.035 504.422 187.566 505.969 186.996 507.639C186.426 509.269 185.815 510.918 185.163 512.588C184.512 514.217 183.84 515.785 183.147 517.292H176.61C177.017 515.663 177.404 513.973 177.771 512.222C178.137 510.429 178.484 508.678 178.809 506.967C179.135 505.257 179.4 503.709 179.604 502.324H187.974L188.401 502.996ZM174.472 502.996C174.105 504.422 173.637 505.969 173.067 507.639C172.496 509.269 171.885 510.918 171.234 512.588C170.582 514.217 169.91 515.785 169.218 517.292H162.68C162.965 516.071 163.251 514.808 163.536 513.505C163.821 512.201 164.086 510.898 164.33 509.594C164.615 508.25 164.859 506.967 165.063 505.745C165.307 504.524 165.511 503.383 165.674 502.324H174.044L174.472 502.996ZM191.109 545.946L195.202 524.379L190.009 508.922H200.517L202.595 516.865H202.961C203.572 515.317 204.244 514.014 204.977 512.955C205.751 511.855 206.647 510.979 207.665 510.328C208.684 509.635 209.845 509.126 211.148 508.8C212.492 508.474 213.999 508.311 215.669 508.311C218.642 508.311 221.229 509.045 223.428 510.511C225.627 511.936 227.358 513.993 228.621 516.681C229.884 519.37 230.515 522.608 230.515 526.396V527.19C230.515 530.896 229.823 534.155 228.438 536.965C227.094 539.775 225.139 541.975 222.573 543.563C220.007 545.152 216.891 545.946 213.225 545.946H207.421L208.643 537.271H212.675C214.997 537.271 216.789 536.334 218.052 534.46C219.355 532.546 220.007 530.122 220.007 527.19V526.396C220.007 524.4 219.722 522.73 219.151 521.386C218.581 520.001 217.787 518.942 216.769 518.209C215.791 517.476 214.671 517.109 213.408 517.109C212.064 517.109 210.924 517.313 209.987 517.72C209.091 518.087 208.338 518.677 207.727 519.492C207.116 520.266 206.627 521.223 206.26 522.363C205.894 523.504 205.588 524.848 205.344 526.396L201.984 545.946H191.109ZM259.647 545.946C257.854 542.851 256.144 539.999 254.515 537.393C252.885 534.745 251.236 532.22 249.566 529.817C247.896 527.414 246.043 524.97 244.006 522.486C243.232 521.549 242.336 520.449 241.318 519.186C240.34 517.883 239.322 516.559 238.263 515.215C237.245 513.871 236.288 512.649 235.392 511.549C234.536 510.409 233.844 509.533 233.314 508.922H246.206C247.02 509.9 247.916 511.061 248.894 512.405C249.871 513.749 250.808 515.073 251.704 516.376C252.641 517.679 253.415 518.779 254.026 519.675C255.94 522.567 257.895 525.459 259.891 528.351C261.887 531.202 263.882 534.073 265.878 536.965C267.915 539.857 269.89 542.851 271.804 545.946H259.647ZM232.459 545.946L233.925 536.171C234.251 534.012 234.781 531.935 235.514 529.939C236.288 527.943 237.469 526.172 239.057 524.624C240.687 523.076 242.947 521.936 245.839 521.203L248.894 527.923C247.753 528.29 246.878 528.941 246.267 529.878C245.696 530.774 245.289 531.833 245.045 533.055C244.8 534.277 244.556 535.54 244.312 536.843L242.906 545.946H232.459ZM258.364 531.039L255.37 524.318C256.714 523.911 257.712 523.259 258.364 522.363C259.015 521.427 259.484 520.347 259.769 519.125C260.054 517.903 260.257 516.661 260.38 515.398L261.174 508.922H271.621L270.888 516.071C270.684 518.229 270.155 520.306 269.3 522.302C268.444 524.298 267.141 526.07 265.389 527.618C263.638 529.125 261.296 530.265 258.364 531.039Z" fill="black"/>
<defs>
<linearGradient id="paint0_linear_64_146" x1="393.329" y1="229.341" x2="380.61" y2="502.244" gradientUnits="userSpaceOnUse">
<stop stop-color="#881014"/>
<stop offset="0.348958" stop-color="#EB3434"/>
<stop offset="1" stop-color="#EEDA39"/>
</linearGradient>
<linearGradient id="paint1_linear_64_146" x1="201.518" y1="391.127" x2="383.4" y2="158.999" gradientUnits="userSpaceOnUse">
<stop stop-color="#0F3E5A"/>
<stop offset="1" stop-color="#006BAB"/>
</linearGradient>
<linearGradient id="paint2_linear_64_146" x1="544.38" y1="416.699" x2="357.687" y2="351.147" gradientUnits="userSpaceOnUse">
<stop stop-color="#449F6D"/>
<stop offset="0.985444" stop-color="#006BAB" stop-opacity="0"/>
</linearGradient>
<linearGradient id="paint3_linear_64_146" x1="318.148" y1="142.225" x2="443.489" y2="422.942" gradientUnits="userSpaceOnUse">
<stop stop-color="#EEDA39"/>
<stop offset="1" stop-color="#E8494F"/>
</linearGradient>
<linearGradient id="paint4_linear_64_146" x1="353.91" y1="84.6972" x2="269.379" y2="283.14" gradientUnits="userSpaceOnUse">
<stop stop-color="#449F6D"/>
<stop offset="1" stop-color="#EDCB3B" stop-opacity="0"/>
</linearGradient>
<linearGradient id="paint5_linear_64_146" x1="543.686" y1="563.052" x2="333.438" y2="436.098" gradientUnits="userSpaceOnUse">
<stop stop-color="#A21C21"/>
<stop offset="1" stop-opacity="0"/>
</linearGradient>
</defs>
</svg>



