<svg width="18" height="18" viewBox="0 0 18 18" fill="none" xmlns="http://www.w3.org/2000/svg">
<path d="M9.43712 2.25H9.14837C8.80028 2.25 8.46644 2.38828 8.2203 2.63442C7.97416 2.88056 7.83588 3.2144 7.83588 3.56249V3.68061C7.83564 3.91078 7.77489 4.13683 7.6597 4.3361C7.54452 4.53536 7.37896 4.70084 7.17964 4.81592L6.89745 4.97998C6.69793 5.09518 6.47159 5.15582 6.2412 5.15582C6.01081 5.15582 5.78448 5.09518 5.58496 4.97998L5.48652 4.92748C5.18535 4.75375 4.82754 4.70662 4.49166 4.79643C4.15577 4.88625 3.86924 5.10568 3.69497 5.40654L3.5506 5.65591C3.37687 5.95709 3.32973 6.31489 3.41955 6.65078C3.50937 6.98667 3.72879 7.2732 4.02966 7.44746L4.12809 7.51309C4.32646 7.62761 4.4914 7.79205 4.60653 7.99007C4.72166 8.18808 4.78296 8.41278 4.78434 8.64183V8.97651C4.78526 9.20779 4.72505 9.4352 4.60981 9.63572C4.49457 9.83624 4.32839 10.0027 4.12809 10.1184L4.02966 10.1774C3.72879 10.3517 3.50937 10.6382 3.41955 10.9741C3.32973 11.31 3.37687 11.6678 3.5506 11.969L3.69497 12.2184C3.86924 12.5192 4.15577 12.7387 4.49166 12.8285C4.82754 12.9183 5.18535 12.8712 5.48652 12.6974L5.58496 12.6449C5.78448 12.5297 6.01081 12.4691 6.2412 12.4691C6.47159 12.4691 6.69793 12.5297 6.89745 12.6449L7.17964 12.809C7.37896 12.9241 7.54452 13.0895 7.6597 13.2888C7.77489 13.4881 7.83564 13.7141 7.83588 13.9443V14.0624C7.83588 14.4105 7.97416 14.7443 8.2203 14.9905C8.46644 15.2366 8.80028 15.3749 9.14837 15.3749H9.43712C9.78521 15.3749 10.1191 15.2366 10.3652 14.9905C10.6113 14.7443 10.7496 14.4105 10.7496 14.0624V13.9443C10.7498 13.7141 10.8106 13.4881 10.9258 13.2888C11.041 13.0895 11.2065 12.9241 11.4059 12.809L11.688 12.6449C11.8876 12.5297 12.1139 12.4691 12.3443 12.4691C12.5747 12.4691 12.801 12.5297 13.0005 12.6449L13.099 12.6974C13.4001 12.8712 13.7579 12.9183 14.0938 12.8285C14.4297 12.7387 14.7163 12.5192 14.8905 12.2184L15.0349 11.9624C15.2086 11.6613 15.2558 11.3035 15.1659 10.9676C15.0761 10.6317 14.8567 10.3451 14.5558 10.1709L14.4574 10.1184C14.2571 10.0027 14.0909 9.83624 13.9757 9.63572C13.8604 9.4352 13.8002 9.20779 13.8012 8.97651V8.64839C13.8002 8.41712 13.8604 8.18971 13.9757 7.98919C14.0909 7.78867 14.2571 7.62216 14.4574 7.50653L14.5558 7.44746C14.8567 7.2732 15.0761 6.98667 15.1659 6.65078C15.2558 6.31489 15.2086 5.95709 15.0349 5.65591L14.8905 5.40654C14.7163 5.10568 14.4297 4.88625 14.0938 4.79643C13.7579 4.70662 13.4001 4.75375 13.099 4.92748L13.0005 4.97998C12.801 5.09518 12.5747 5.15582 12.3443 5.15582C12.1139 5.15582 11.8876 5.09518 11.688 4.97998L11.4059 4.81592C11.2065 4.70084 11.041 4.53536 10.9258 4.3361C10.8106 4.13683 10.7498 3.91078 10.7496 3.68061V3.56249C10.7496 3.2144 10.6113 2.88056 10.3652 2.63442C10.1191 2.38828 9.78521 2.25 9.43712 2.25Z" stroke="white" stroke-linecap="round" stroke-linejoin="round"/>
<path d="M9.29295 10.7812C10.3803 10.7812 11.2617 9.89979 11.2617 8.81249C11.2617 7.72518 10.3803 6.84375 9.29295 6.84375C8.20565 6.84375 7.32422 7.72518 7.32422 8.81249C7.32422 9.89979 8.20565 10.7812 9.29295 10.7812Z" stroke="white" stroke-linecap="round" stroke-linejoin="round"/>
</svg>
