<svg width="16" height="14" viewBox="0 0 16 14" fill="none" xmlns="http://www.w3.org/2000/svg">
    <path d="M6.75 2H14.875M6.75 2C6.75 2.33152 6.6183 2.64946 6.38388 2.88388C6.14946 3.1183 5.83152 3.25 5.5 3.25C5.16848 3.25 4.85054 3.1183 4.61612 2.88388C4.3817 2.64946 4.25 2.33152 4.25 2M6.75 2C6.75 1.66848 6.6183 1.35054 6.38388 1.11612C6.14946 0.881696 5.83152 0.75 5.5 0.75C5.16848 0.75 4.85054 0.881696 4.61612 1.11612C4.3817 1.35054 4.25 1.66848 4.25 2M4.25 2H1.125M6.75 12H14.875M6.75 12C6.75 12.3315 6.6183 12.6495 6.38388 12.8839C6.14946 13.1183 5.83152 13.25 5.5 13.25C5.16848 13.25 4.85054 13.1183 4.61612 12.8839C4.3817 12.6495 4.25 12.3315 4.25 12M6.75 12C6.75 11.6685 6.6183 11.3505 6.38388 11.1161C6.14946 10.8817 5.83152 10.75 5.5 10.75C5.16848 10.75 4.85054 10.8817 4.61612 11.1161C4.3817 11.3505 4.25 11.6685 4.25 12M4.25 12H1.125M11.75 7H14.875M11.75 7C11.75 7.33152 11.6183 7.64946 11.3839 7.88388C11.1495 8.1183 10.8315 8.25 10.5 8.25C10.1685 8.25 9.85054 8.1183 9.61612 7.88388C9.3817 7.64946 9.25 7.33152 9.25 7M11.75 7C11.75 6.66848 11.6183 6.35054 11.3839 6.11612C11.1495 5.8817 10.8315 5.75 10.5 5.75C10.1685 5.75 9.85054 5.8817 9.61612 6.11612C9.3817 6.35054 9.25 6.66848 9.25 7M9.25 7H1.125" stroke="#002A78" stroke-width="1.5" stroke-linecap="round" stroke-linejoin="round"/>
    </svg>
    