<svg width="221" height="56" viewBox="0 0 221 56" fill="none" xmlns="http://www.w3.org/2000/svg">
<path fill-rule="evenodd" clip-rule="evenodd" d="M45.6491 35.7594L45.5339 31.6836L44.3595 33.2379L45.6491 35.7594Z" fill="#002A78"/>
<path d="M45.6491 35.7594L44.3595 33.2379L38.2344 41.6658H40.3413L45.6491 35.7594Z" fill="url(#paint0_linear_25_3846)"/>
<path d="M45.6491 35.7594L45.5339 31.6836L44.3595 33.2379M45.6491 35.7594L44.3595 33.2379M45.6491 35.7594L40.3413 41.6658H38.2344L44.3595 33.2379" stroke="white" stroke-width="0.138162"/>
<path d="M44.9585 34.4238L45.5917 35.7249L45.4421 35.9781H44.3828L44.9585 34.4238Z" fill="white" fill-opacity="0.64"/>
<path d="M45.0735 32.5469L44.9929 33.8709L44.8548 34.2278L44.4863 33.537L45.0735 32.5469Z" fill="white"/>
<path d="M50.6349 8.93899L40.7025 22.3322L36.0977 20.3751L50.6349 8.93899Z" fill="url(#paint1_linear_25_3846)"/>
<path d="M50.6349 8.93899L48.1548 24.8992L40.7025 22.3322L50.6349 8.93899Z" fill="url(#paint2_linear_25_3846)"/>
<path d="M40.7025 22.3322L48.1548 24.8992L35.3679 41.614L30.4181 43.0483L29.2269 42.5421L40.7025 22.3322Z" fill="url(#paint3_linear_25_3846)"/>
<path fill-rule="evenodd" clip-rule="evenodd" d="M48.1548 24.8992L49.3788 26.0197L37.888 43.6355L35.3679 41.614L48.1548 24.8992ZM40.7025 22.3322L36.0977 20.3751L35.5091 21.76L36.1564 26.2376L29.2269 42.5421L40.7025 22.3322Z" fill="url(#paint4_linear_25_3846)"/>
<path d="M50.6349 8.93899L49.3788 26.0197L48.1548 24.8992L50.6349 8.93899Z" fill="#404DC0"/>
<path d="M50.6349 8.93899L49.3788 26.0197M50.6349 8.93899L48.1548 24.8992M50.6349 8.93899L40.7025 22.3322M50.6349 8.93899L36.0977 20.3751M49.3788 26.0197L48.1548 24.8992M49.3788 26.0197L37.888 43.6355L35.3679 41.614M48.1548 24.8992L40.7025 22.3322M48.1548 24.8992L35.3679 41.614M40.7025 22.3322L36.0977 20.3751M40.7025 22.3322L29.2269 42.5421M36.0977 20.3751L35.5091 21.76L36.1564 26.2376L29.2269 42.5421M35.3679 41.614L30.4181 43.0483L29.2269 42.5421" stroke="white" stroke-width="0.138162"/>
<g filter="url(#filter0_f_25_3846)">
<path d="M48.5255 21.2117L45.93 23.7873L48.0347 24.4903L48.5255 21.2117Z" fill="white" fill-opacity="0.2"/>
</g>
<g filter="url(#filter1_f_25_3846)">
<path d="M45.2751 16.4012L43.0387 19.3854L40.8417 22.2507L44.6806 20.0832L45.2751 16.4012Z" fill="url(#paint5_linear_25_3846)" fill-opacity="0.4"/>
</g>
<path d="M38.6667 25.912L40.6937 22.3279L39.9712 22.0179L38.6667 25.912Z" fill="white"/>
<path d="M48.3477 24.8403L47.2276 24.3643L35.5779 39.7484L37.3902 38.7687L48.3477 24.8403Z" fill="url(#paint6_linear_25_3846)"/>
<path d="M42.2219 27.1291L40.078 23.7527L29.4522 42.0372L30.4389 42.4566L30.5625 42.5857L33.0537 41.2431L42.2219 27.1291Z" fill="url(#paint7_linear_25_3846)"/>
<path d="M49.2988 26.011L48.2497 25.067L45.2833 31.8536L49.2988 26.011Z" fill="#002A78" fill-opacity="0.33"/>
<rect width="0.512487" height="5.95812" transform="matrix(-0.726359 -0.687315 -0.603407 0.797433 42.084 30.7017)" fill="url(#paint8_linear_25_3846)" fill-opacity="0.31"/>
<rect width="1.16054" height="11.1636" transform="matrix(-0.845054 -0.534681 -0.489871 0.871795 41.583 23.0762)" fill="url(#paint9_linear_25_3846)" fill-opacity="0.31"/>
<rect width="0.819752" height="6.16434" transform="matrix(0.35076 -0.936465 -0.943585 -0.331129 45.8574 24.9941)" fill="url(#paint10_linear_25_3846)" fill-opacity="0.31"/>
<rect width="1.01917" height="7.98055" transform="matrix(-0.764504 -0.644618 -0.57024 0.821478 47.7617 28.3179)" fill="url(#paint11_linear_25_3846)" fill-opacity="0.31"/>
<rect width="1.41417" height="11.2053" transform="matrix(-0.840574 -0.541697 -0.494837 0.868986 40.5693 22.5234)" fill="url(#paint12_linear_25_3846)" fill-opacity="0.7"/>
<path d="M42.435 16.6511L42.0505 15.9433L36.4872 20.3233L39.6866 21.7597L42.435 16.6511Z" fill="url(#paint13_linear_25_3846)" fill-opacity="0.31"/>
<path d="M45.3213 16.1074L45.058 16.4553L44.5727 20.0173L44.2606 20.3317L44.7238 20.0815L45.3213 16.1074Z" fill="white" fill-opacity="0.8"/>
<path d="M48.7754 20.8706L48.4789 21.2811L47.9989 24.1299L46.544 23.997L46.819 24.165L46.9153 24.3336L47.0305 24.4081L46.8601 24.4634L48.1448 24.9072L48.7754 20.8706Z" fill="white" fill-opacity="0.8"/>
<path d="M17.7068 1L22.3583 16.8771H28.3222L17.7068 1Z" fill="url(#paint14_linear_25_3846)"/>
<path d="M17.7068 1L12.9863 16.336L22.3583 16.8771L17.7068 1Z" fill="url(#paint15_linear_25_3846)"/>
<path d="M22.3583 16.8771L12.9863 16.336L18.3285 33.1341L23.9817 39.4896H25.5245L22.3583 16.8771Z" fill="url(#paint16_linear_25_3846)"/>
<path fill-rule="evenodd" clip-rule="evenodd" d="M12.9863 16.336L11.1211 16.8771L14.1491 29.1159L18.3285 33.1341L12.9863 16.336ZM22.3583 16.8771H28.3222V18.3508L25.5245 22.1388V39.4896L22.3583 16.8771Z" fill="url(#paint17_linear_25_3846)"/>
<path d="M17.7068 1L11.1211 16.8771L12.9863 16.336L17.7068 1Z" fill="#404DC0"/>
<path d="M17.7068 1L11.1211 16.8771M17.7068 1L12.9863 16.336M17.7068 1L22.3583 16.8771M17.7068 1L28.3222 16.8771M11.1211 16.8771L12.9863 16.336M11.1211 16.8771L14.1491 29.1159L18.3285 33.1341M12.9863 16.336L22.3583 16.8771M12.9863 16.336L18.3285 33.1341M22.3583 16.8771H28.3222M22.3583 16.8771L25.5245 39.4896M28.3222 16.8771V18.3508L25.5245 22.1388V39.4896M18.3285 33.1341L23.9817 39.4896H25.5245" stroke="white" stroke-width="0.138162"/>
<g filter="url(#filter2_f_25_3846)">
<path d="M14.2988 12.8706L15.9452 16.1865L13.3086 16.0138L14.2988 12.8706Z" fill="white" fill-opacity="0.2"/>
</g>
<g filter="url(#filter3_f_25_3846)">
<path d="M20.1061 9.77963L21.168 13.3262L22.2422 16.7505L19.0415 13.3262L20.1061 9.77963Z" fill="url(#paint18_linear_25_3846)" fill-opacity="0.4"/>
</g>
<path d="M22.9223 20.8839L22.3697 16.8768L23.3068 16.8741L22.9223 20.8839Z" fill="white"/>
<path d="M12.8018 16.2095H14.2525L19.8595 34.5389L18.3282 32.9616L12.8018 16.2095Z" fill="url(#paint19_linear_25_3846)"/>
<path d="M18.4551 20.6191L22.3812 18.397L25.5128 38.9485H24.2348L24.0391 39.0176L21.9322 36.8531L18.4551 20.6191Z" fill="url(#paint20_linear_25_3846)"/>
<path d="M11.2128 16.9002L12.8038 16.4512L12.8938 23.7047L11.2128 16.9002Z" fill="#002A78" fill-opacity="0.33"/>
<rect x="16.9404" y="23.8921" width="0.598701" height="5.91793" transform="rotate(-16.9848 16.9404 23.8921)" fill="url(#paint21_linear_25_3846)" fill-opacity="0.31"/>
<rect x="21.0449" y="17.2104" width="1.37746" height="10.9652" transform="rotate(-7.66017 21.0449 17.2104)" fill="url(#paint22_linear_25_3846)" fill-opacity="0.31"/>
<rect x="15.4619" y="17.3018" width="0.803222" height="7.34278" transform="rotate(-86.9679 15.4619 17.3018)" fill="url(#paint23_linear_25_3846)" fill-opacity="0.31"/>
<rect x="11.8232" y="19.5684" width="1.19762" height="7.89357" transform="rotate(-14.1952 11.8232 19.5684)" fill="url(#paint24_linear_25_3846)" fill-opacity="0.31"/>
<rect x="22.415" y="17.1006" width="1.67774" height="11.0095" transform="rotate(-8.05561 22.415 17.1006)" fill="url(#paint25_linear_25_3846)" fill-opacity="0.7"/>
<path d="M23.1063 11.093L23.8581 10.6023L27.9189 16.6814L23.7395 16.7505L23.1063 11.093Z" fill="url(#paint26_linear_25_3846)" fill-opacity="0.31"/>
<path d="M20.1934 9.49707L20.32 9.91155L19.1917 13.308L19.3874 13.711L18.996 13.308L20.1934 9.49707Z" fill="white" fill-opacity="0.8"/>
<path d="M14.1836 12.4673L14.3174 12.9508L13.5158 15.7026L15.1738 16.1401L14.7938 16.1861L14.6096 16.3013L14.4484 16.3243L14.6096 16.4394L12.9934 16.3473L14.1836 12.4673Z" fill="white" fill-opacity="0.8"/>
<path d="M10.1993 24.5334L1 24.0269L7.35544 27.1931L10.1993 24.5334Z" fill="url(#paint27_linear_25_3846)"/>
<path d="M7.35544 27.1931L4.98367 31.9481L19.0416 42.7823H20.3657L21.8049 41.9649L7.35544 27.1931Z" fill="url(#paint28_linear_25_3846)"/>
<path d="M7.35544 27.1931L4.98367 31.9481L19.0416 42.7823H20.3657L21.8049 41.9649L7.35544 27.1931Z" fill="url(#paint29_linear_25_3846)" fill-opacity="0.5"/>
<path d="M10.1993 24.5334L7.35544 27.1931L21.8049 41.9649L24.5221 39.4895L10.1993 24.5334Z" fill="url(#paint30_radial_25_3846)"/>
<path fill-rule="evenodd" clip-rule="evenodd" d="M5.65145 33.7903L4.98367 31.9481L19.0416 42.7823H16.4281L5.65145 33.7903Z" fill="url(#paint31_linear_25_3846)"/>
<path d="M7.35544 27.1931L1 24.0269L4.98367 31.9481L7.35544 27.1931Z" fill="url(#paint32_linear_25_3846)"/>
<path d="M10.1993 24.5334L1 24.0269M10.1993 24.5334L7.35544 27.1931M10.1993 24.5334L24.5221 39.4895L21.8049 41.9649M1 24.0269L7.35544 27.1931M1 24.0269L4.98367 31.9481M7.35544 27.1931L4.98367 31.9481M7.35544 27.1931L21.8049 41.9649M4.98367 31.9481L5.65145 33.7903L16.4281 42.7823H19.0416M4.98367 31.9481L19.0416 42.7823M19.0416 42.7823H20.3657L21.8049 41.9649" stroke="white" stroke-width="0.138162"/>
<path d="M4.91452 24.7635C4.91452 24.6622 4.82242 24.729 4.77636 24.775C4.67504 24.8487 4.76485 24.8441 4.82242 24.8326C4.85312 24.8518 4.91452 24.8648 4.91452 24.7635Z" fill="white"/>
<rect x="11.8223" y="33.8374" width="1.37746" height="10.9652" transform="rotate(-44.6514 11.8223 33.8374)" fill="url(#paint33_linear_25_3846)" fill-opacity="0.31"/>
<path d="M2.15153 25.6159L2.08244 25.6644L4.99535 31.3957L6.54967 28.4252L2.15153 25.6159Z" fill="url(#paint34_linear_25_3846)" fill-opacity="0.31"/>
<path d="M9.38184 29.3809L11.1319 31.1539L10.0611 32.8004L9.38184 29.3809Z" fill="#235DCA" fill-opacity="0.22"/>
<g filter="url(#filter4_f_25_3846)">
<path d="M6.31896 32.9036L8.19566 33.2835L9.71544 31.0614L10.0608 32.8L8.27626 34.4003L6.31896 32.9036Z" fill="url(#paint35_linear_25_3846)" fill-opacity="0.29"/>
</g>
<path d="M9.38223 29.3232L9.6125 29.4844L10.073 32.8003L8.25391 34.4352L9.88882 32.8349L9.38223 29.3232Z" fill="white" fill-opacity="0.6"/>
<path d="M17.0155 37.1522L17.7063 41.7346L15.6108 40.0536L16.2728 38.649L16.7046 37.6588L13.8838 34.6538H14.5516L17.0155 37.1522Z" fill="url(#paint36_linear_25_3846)" fill-opacity="0.43"/>
<path d="M17.4181 40.0649L18.5694 41.1012L18.6731 42.4137L17.7865 41.792L16.6582 40.9054L17.4181 40.0649Z" fill="#6461E8" fill-opacity="0.56"/>
<rect x="7.4707" y="33.3916" width="0.463908" height="11.6286" transform="rotate(-52.1944 7.4707 33.3916)" fill="url(#paint37_linear_25_3846)"/>
<rect x="7.4707" y="35.2051" width="0.463908" height="11.6286" transform="rotate(-50.0725 7.4707 35.2051)" fill="url(#paint38_linear_25_3846)"/>
<path d="M5.39844 26.2603L7.36724 27.1928L6.89519 28.0679L5.39844 26.2603Z" fill="white"/>
<path d="M5.28337 24.9478L9.45125 25.1435L7.3558 27.1238L2.99219 24.9478H5.28337Z" fill="#002A78"/>
<g filter="url(#filter5_f_25_3846)">
<path d="M4.4561 24.9851C4.44535 24.9482 4.4569 24.9083 4.48575 24.8829L4.5644 24.8135C4.60785 24.7752 4.66267 24.7522 4.72046 24.7481L5.08009 24.7223C5.11093 24.7201 5.14146 24.7298 5.16541 24.7493C5.24154 24.8115 5.21587 24.9337 5.12116 24.96L4.87016 25.0297C4.85354 25.0343 4.83649 25.0372 4.81928 25.0384L4.55826 25.0564C4.51168 25.0596 4.46915 25.0299 4.4561 24.9851Z" fill="white" fill-opacity="0.3"/>
</g>
<path d="M5.0529 24.9318C4.96856 24.8756 4.84581 24.9133 4.91474 24.9433C4.97246 24.9824 4.90339 25.0169 4.96096 25.0054C4.9955 24.9708 5.15668 25.0009 5.0529 24.9318Z" fill="white" fill-opacity="0.46"/>
<path d="M10.1299 24.5333L6.51465 24.3721L9.35848 24.706L7.93081 26.6057L10.1299 24.5333Z" fill="white"/>
<path d="M8.43738 26.2144L7.38965 27.193L8.7137 28.5746L8.27619 27.4002L8.47192 27.0433L8.43738 26.2144Z" fill="white" fill-opacity="0.33"/>
<path d="M33.9408 11.9839L25.5244 21.6993L32.9391 23.6518L33.9408 11.9839Z" fill="url(#paint39_linear_25_3846)"/>
<path d="M32.9391 23.6518L25.5244 21.6993V39.283L27.8156 39.4934L31.7647 42.1006H32.0641L32.9391 23.6518Z" fill="url(#paint40_linear_25_3846)"/>
<path fill-rule="evenodd" clip-rule="evenodd" d="M32.0641 42.1006L33.9983 42.4981L37.4409 44.544L38.8801 24.704L32.9391 23.6518L32.0641 42.1006Z" fill="url(#paint41_radial_25_3846)"/>
<path d="M33.9408 11.9839L32.9391 23.6518L38.8801 24.704L33.9408 11.9839Z" fill="#6461E8"/>
<path d="M33.9408 11.9839L32.9391 23.6518L38.8801 24.704L33.9408 11.9839Z" fill="white" fill-opacity="0.2"/>
<path d="M25.5244 21.6993L33.9408 11.9839M25.5244 21.6993L32.9391 23.6518M25.5244 21.6993V39.283L27.8156 39.4934L31.7647 42.1006H32.0641M33.9408 11.9839L32.9391 23.6518M33.9408 11.9839L38.8801 24.704M32.9391 23.6518L38.8801 24.704M32.9391 23.6518L32.0641 42.1006M38.8801 24.704L37.4409 44.544L33.9983 42.4981L32.0641 42.1006" stroke="white" stroke-width="0.138162"/>
<path d="M28.6445 18.2125L30.4061 16.1631L33.3996 17.4756L30.4061 19.525L28.6445 18.2125Z" fill="#002A78" fill-opacity="0.37"/>
<path d="M33.7675 13.2735L33.3963 17.5091L32.547 18.0631L33.7675 13.2735Z" fill="#002A78" fill-opacity="0.71"/>
<path d="M28.2984 20.6997L30.0714 20.0435L28.7474 22.5073L26.6289 21.9317L28.2984 20.6997Z" fill="#343295"/>
<path d="M33.4564 17.4414L30.4168 19.5138L31.879 19.8823L33.4564 17.4414Z" fill="white" fill-opacity="0.4"/>
<path d="M29.749 22.8643L30.4168 22.1044L31.3379 23.2212L31.879 19.8823L30.4168 19.5138L27.9414 22.3346L29.749 22.8643Z" fill="white"/>
<rect x="32.4424" y="14.0708" width="0.586021" height="8.2231" transform="rotate(39.6606 32.4424 14.0708)" fill="url(#paint42_linear_25_3846)" fill-opacity="0.8"/>
<rect x="25.5186" y="22.418" width="1.21381" height="13.9907" transform="rotate(-0.0936705 25.5186 22.418)" fill="url(#paint43_linear_25_3846)" fill-opacity="0.6"/>
<path d="M37.2794 28.4825L38.8222 24.9018L38.3156 32.2474L38.0853 33.3412L37.2794 28.4825Z" fill="url(#paint44_linear_25_3846)" fill-opacity="0.6"/>
<path d="M32.6089 27.5407L33.6379 27.583L32.9642 43.9619L31.8663 43.4661L32.6089 27.5407Z" fill="url(#paint45_linear_25_3846)" fill-opacity="0.6"/>
<rect x="26.1914" y="22.4775" width="0.54639" height="4.48792" transform="rotate(-4.14338 26.1914 22.4775)" fill="url(#paint46_linear_25_3846)" fill-opacity="0.6"/>
<path d="M28.7596 31.223L32.8584 23.9004L32.0294 41.5391L27.804 38.8679H25.6279V32.973L28.7596 31.223Z" fill="#002A78" fill-opacity="0.4"/>
<path d="M32.7432 26.4448L32.3403 34.5618L28.748 31.2229L32.7432 26.4448Z" fill="#002A78"/>
<path d="M25.7656 21.8047L28.2065 22.4264L26.7731 28.045L27.2768 22.4825L26.7731 22.2566L25.7656 21.8047Z" fill="white"/>
<path d="M33.3994 17.856L34.8731 18.9267L33.3418 18.9843L33.3994 17.856Z" fill="white"/>
<path d="M35.9092 21.0682L36.3467 18.374L38.776 24.6143L36.8763 24.2804L35.9092 21.0682Z" fill="#002A78" fill-opacity="0.24"/>
<path d="M36.0247 21.4136L37.2221 23.0715L37.1991 24.338L35.2188 23.9811L36.0247 21.4136Z" fill="#4E52BF"/>
<path d="M33.5034 29.853L37.4525 37.3023L37.2568 43.911L32.8701 41.5853L33.5034 29.853Z" fill="#002A78" fill-opacity="0.51"/>
<path d="M35.7246 21.5402L35.9088 21.0566L36.0355 21.4251L35.7822 22.185L35.7246 21.5402Z" fill="#D5D4F9"/>
<rect x="34.4697" y="24.4414" width="4.0845" height="0.921079" transform="rotate(10.7704 34.4697 24.4414)" fill="url(#paint47_linear_25_3846)"/>
<path d="M35.4951 24.1074L38.8801 24.709L38.4426 30.6471L38.3274 26.5483L37.1991 25.8575L37.8208 25.2473L35.4951 24.1074Z" fill="white"/>
<path d="M12.2946 44.2446L9.57738 50.3928L14.9311 50.7832L18.3622 46.3032L12.2946 44.2446Z" fill="#002A78"/>
<path d="M21.7356 51.2793L18.3622 46.3032L14.9311 50.7832L21.7356 51.2793Z" fill="#414BAA"/>
<path d="M12.2946 44.2446L11.1547 42.4254L8.71387 49.2184L9.57738 50.3928L12.2946 44.2446Z" fill="#7A78EB"/>
<path d="M11.1547 42.4254L12.2946 44.2446L18.3622 46.3032L11.1547 42.4254Z" fill="white"/>
<path d="M12.2946 39.3974L11.5347 39.6392L11.1547 42.4254H15.9328L12.2946 39.3974Z" fill="#002A78"/>
<path d="M14.9311 50.7832L9.57738 50.3928L16.4049 52.0853L14.9311 50.7832Z" fill="white"/>
<path d="M21.2981 47.8828L18.3622 46.3032L21.7356 51.2793L25.5926 49.8632L21.2981 47.8828Z" fill="#002A78"/>
<path d="M23.336 46.5012L21.2981 47.8828L25.5926 49.8632L23.739 47.0769L23.336 46.5012Z" fill="#414BAA"/>
<path d="M25.5926 49.8632L25.7538 55.6314L33.0419 50.7832L30.8543 50.513L25.5926 49.8632Z" fill="#235DCA"/>
<path d="M21.7356 51.2793L25.7538 55.6314L25.5926 49.8632L21.7356 51.2793Z" fill="#002A78"/>
<path d="M21.7356 51.2793L14.9311 50.7832L16.4049 52.0853L25.7538 55.6314L21.7356 51.2793Z" fill="#44428D"/>
<path d="M31.8445 41.4007L31.4645 41.7807L32.4662 42.5291L34.0435 41.8958L31.8445 41.4007Z" fill="#AAEBFF"/>
<path d="M33.0419 50.7832L34.2508 48.4009L37.014 43.7495L32.4662 42.5291L32.8461 47.7217L33.0419 50.7832Z" fill="#B5CFFF"/>
<path d="M32.8461 47.7217L32.4662 42.5291L31.9482 43.0817L31.8445 47.7217H32.8461Z" fill="white"/>
<path d="M31.8445 47.7217L31.9482 43.0817L27.2276 48.1187L31.8445 47.7217Z" fill="#6461E8"/>
<path d="M23.336 46.5012L20.4922 42.4254H15.9328H11.1547L18.3622 46.3032L21.2981 47.8828L23.336 46.5012Z" fill="#D9E7FF"/>
<path d="M34.0435 41.8958L32.4662 42.5291L37.014 43.7495L34.0435 41.8958Z" fill="#D0F4FF"/>
<path d="M27.2276 48.1187L25.5926 49.8632L30.8543 50.513L31.8445 47.7217L27.2276 48.1187Z" fill="#002A78"/>
<path d="M28.1486 42.6672L23.739 47.0769L25.5926 49.8632L27.2276 48.1187L31.9482 43.0817L32.4662 42.5291L31.4645 41.7807L30.578 42.6672H28.1486Z" fill="#002A78"/>
<path d="M20.4922 42.4254L23.336 46.5012L23.739 47.0769L28.1486 42.6672H30.578L31.4645 41.7807L31.8445 41.4007L27.6766 38.7642L24.0844 38.8563L20.4922 42.4254Z" fill="#DDDCF3"/>
<path d="M34.2508 48.4009L37.5667 48.5737L38.2805 46.6279L40.019 44.7627L37.014 43.7495L34.2508 48.4009Z" fill="#414BAA"/>
<path d="M40.019 44.7627L38.2805 46.6279L37.5667 48.5737L37.9006 48.8732L40.9747 44.7627H40.019Z" fill="#414BAA"/>
<path d="M33.0419 50.7832L39.1325 49.9783L37.9006 48.8732L37.5667 48.5737L34.2508 48.4009L33.0419 50.7832Z" fill="#002A78"/>
<path d="M37.014 43.7495L40.019 44.7627H40.9747L41.4467 44.8419L40.8135 42.4254L41.4467 42.1376L39.0634 41.228L38.4647 41.7807L37.5436 41.3547L37.014 43.7495Z" fill="#002A78"/>
<path d="M39.0634 41.228L41.4467 42.1376L40.8135 40.9863L40.4911 41.3086L39.0634 41.228Z" fill="#6461E8"/>
<path d="M41.4467 42.1376L40.8135 42.4254L41.4467 44.8419L42.6902 45.0505L41.4467 42.1376Z" fill="#6190E8"/>
<path d="M37.9006 48.8732L39.1325 49.9783V49.3451L39.7542 49.0227L40.9747 47.3715L42.6902 45.0505L41.4467 44.8419L40.9747 44.7627L37.9006 48.8732Z" fill="#002A78"/>
<path d="M43.2083 45.8334L42.6902 45.0505L40.9747 47.3715L43.2083 45.8334Z" fill="#A7BFE8"/>
<path d="M43.2083 45.8334L40.9747 47.3715L41.6079 51.1642L43.2083 45.8334Z" fill="#235DCA"/>
<path d="M39.1325 49.9783L40.2723 51.3945L41.6079 51.1642L40.9747 47.3715L39.7542 49.0227L39.1325 49.3451V49.9783Z" fill="#6190E8"/>
<path d="M39.1325 49.9783L38.5108 52.5343L40.2723 51.3945L39.1325 49.9783Z" fill="white"/>
<path d="M34.2508 52.753L35.5748 53.5935L38.5108 52.753V52.5343L34.2508 52.753Z" fill="#002A78"/>
<path d="M27.5614 55.8617L35.5748 53.5935L34.2508 52.753L27.5614 55.8617Z" fill="#414BAA"/>
<path fill-rule="evenodd" clip-rule="evenodd" d="M38.5108 52.5343L34.2508 52.753L33.0419 50.7832L39.1325 49.9783L38.5108 52.5343ZM38.5108 52.5343L40.2723 51.3945L41.6079 51.1642L38.5108 52.753V52.5343ZM33.0419 50.7832L30.8543 50.513L31.8445 47.7217H32.8461L33.0419 50.7832Z" fill="#6190E8"/>
<path d="M33.0419 50.7832L25.7538 55.6314L26.5943 55.4817L27.5614 55.8617L34.2508 52.753L33.0419 50.7832Z" fill="#DDDCF3"/>
<path d="M11.1547 42.4254L11.5347 39.6392L12.2946 39.3974L15.9328 42.4254M11.1547 42.4254L12.2946 44.2446M11.1547 42.4254L8.71387 49.2184L9.57738 50.3928M11.1547 42.4254L18.3622 46.3032M11.1547 42.4254H15.9328M20.4922 42.4254L23.336 46.5012M20.4922 42.4254L24.0844 38.8563L27.6766 38.7642L31.8445 41.4007M20.4922 42.4254H15.9328M23.336 46.5012L21.2981 47.8828M23.336 46.5012L23.739 47.0769M21.2981 47.8828L18.3622 46.3032M21.2981 47.8828L25.5926 49.8632M12.2946 44.2446L9.57738 50.3928M12.2946 44.2446L18.3622 46.3032M9.57738 50.3928L14.9311 50.7832M9.57738 50.3928L16.4049 52.0853M21.7356 51.2793L18.3622 46.3032M21.7356 51.2793L14.9311 50.7832M21.7356 51.2793L25.7538 55.6314M21.7356 51.2793L25.5926 49.8632M18.3622 46.3032L14.9311 50.7832M14.9311 50.7832L16.4049 52.0853M16.4049 52.0853L25.7538 55.6314M25.7538 55.6314L25.5926 49.8632M25.7538 55.6314L33.0419 50.7832M25.7538 55.6314L26.5943 55.4817L27.5614 55.8617M25.5926 49.8632L23.739 47.0769M25.5926 49.8632L27.2276 48.1187M25.5926 49.8632L30.8543 50.513M33.0419 50.7832L34.2508 52.753M33.0419 50.7832L39.1325 49.9783M33.0419 50.7832L34.2508 48.4009M33.0419 50.7832L32.8461 47.7217M33.0419 50.7832L30.8543 50.513M27.5614 55.8617L35.5748 53.5935M27.5614 55.8617L34.2508 52.753M35.5748 53.5935L34.2508 52.753M35.5748 53.5935L38.5108 52.753M34.2508 52.753L38.5108 52.5343M39.1325 49.9783L38.5108 52.5343M39.1325 49.9783L40.2723 51.3945M39.1325 49.9783L37.9006 48.8732M39.1325 49.9783V49.3451L39.7542 49.0227L40.9747 47.3715M38.5108 52.5343V52.753M38.5108 52.5343L40.2723 51.3945M38.5108 52.753L41.6079 51.1642M40.2723 51.3945L41.6079 51.1642M41.6079 51.1642L43.2083 45.8334M41.6079 51.1642L40.9747 47.3715M34.2508 48.4009L37.5667 48.5737M34.2508 48.4009L37.014 43.7495M37.5667 48.5737L38.2805 46.6279L40.019 44.7627M37.5667 48.5737L37.9006 48.8732M37.014 43.7495L40.019 44.7627M37.014 43.7495L37.5436 41.3547L38.4647 41.7807L39.0634 41.228M37.014 43.7495L34.0435 41.8958M37.014 43.7495L32.4662 42.5291M40.019 44.7627H40.9747M40.9747 44.7627L37.9006 48.8732M40.9747 44.7627L41.4467 44.8419M42.6902 45.0505L43.2083 45.8334M42.6902 45.0505L40.9747 47.3715M42.6902 45.0505L41.4467 42.1376M42.6902 45.0505L41.4467 44.8419M43.2083 45.8334L40.9747 47.3715M41.4467 42.1376L40.8135 42.4254L41.4467 44.8419M41.4467 42.1376L39.0634 41.228M41.4467 42.1376L40.8135 40.9863L40.4911 41.3086L39.0634 41.228M23.739 47.0769L28.1486 42.6672H30.578L31.4645 41.7807M31.8445 41.4007L31.4645 41.7807M31.8445 41.4007L34.0435 41.8958M32.4662 42.5291L31.4645 41.7807M32.4662 42.5291L34.0435 41.8958M32.4662 42.5291L32.8461 47.7217M32.4662 42.5291L31.9482 43.0817M32.8461 47.7217H31.8445M31.8445 47.7217L31.9482 43.0817M31.8445 47.7217L27.2276 48.1187M31.8445 47.7217L30.8543 50.513M31.9482 43.0817L27.2276 48.1187" stroke="white" stroke-width="0.138162"/>
<rect x="21.5859" y="41.6362" width="3.62979" height="5.38238" transform="rotate(-44.736 21.5859 41.6362)" fill="#A8A7F2" fill-opacity="0.33"/>
<path d="M24.0155 45.638L25.3971 42.5869L26.7788 44.1067L25.5008 45.3962L23.9004 46.9736L24.0155 45.638Z" fill="white"/>
<path d="M20.8262 42.4243L21.8003 41.4124L22.9907 42.9552L20.8262 42.4243Z" fill="#B4B5F4"/>
<path d="M23.7962 47.0989L24.7704 46.087L24.3489 47.0195L25.293 48.5854L23.7962 47.0989Z" fill="#B4B5F4"/>
<path d="M24.1421 39.1095L24.2687 38.8792L25.7425 38.8792L24.8674 39.7658L24.1421 39.1095Z" fill="#B4B5F4"/>
<path d="M21.8965 41.5044L23.815 41.8037L24.51 44.6245L22.8406 42.9321L21.8965 41.5044Z" fill="#9393EF"/>
<path d="M20.366 46.4898L21.7246 46.4553L22.1391 46.8352L22.8414 46.8352L21.4368 47.817L18.8232 46.3286L20.366 46.4898Z" fill="#9393EF"/>
<path d="M20.573 42.4829H19.5713L21.1832 43.381L20.573 42.4829Z" fill="#B4B5F4"/>
<path d="M28.9198 46.3862L27.4346 48.0096L29.7488 47.8254L28.5974 47.6527L28.9198 46.3862Z" fill="#002A78" fill-opacity="0.75"/>
<path d="M14.8274 42.4717H11.5L13.1119 43.3697L14.8274 42.4717Z" fill="#B4B5F4"/>
<path d="M14.39 42.6904L13.043 43.3237L14.6549 44.2217L14.39 42.6904Z" fill="#9AA1E2"/>
<rect x="13.0195" y="42.4253" width="3.91459" height="0.483566" fill="url(#paint48_linear_25_3846)" fill-opacity="0.56"/>
<rect x="12.0859" y="44.0835" width="6.64655" height="1.05924" transform="rotate(19.628 12.0859 44.0835)" fill="url(#paint49_linear_25_3846)" fill-opacity="0.56"/>
<rect x="26.0801" y="49.9321" width="6.04827" height="0.558011" transform="rotate(7.53531 26.0801 49.9321)" fill="url(#paint50_linear_25_3846)" fill-opacity="0.56"/>
<rect x="37.709" y="44.3599" width="2.01863" height="0.558011" transform="rotate(7.53531 37.709 44.3599)" fill="url(#paint51_linear_25_3846)" fill-opacity="0.56"/>
<rect x="39.0957" y="41.1821" width="2.25255" height="0.530791" transform="rotate(24.0572 39.0957 41.1821)" fill="url(#paint52_linear_25_3846)" fill-opacity="0.56"/>
<rect x="37.2529" y="48.4585" width="2.25255" height="0.530791" transform="rotate(38.5789 37.2529 48.4585)" fill="url(#paint53_linear_25_3846)" fill-opacity="0.56"/>
<rect x="33.4072" y="50.6001" width="2.25255" height="0.530791" transform="rotate(38.5789 33.4072 50.6001)" fill="url(#paint54_linear_25_3846)" fill-opacity="0.56"/>
<rect x="16.2109" y="51.3828" width="10.1275" height="0.558011" transform="rotate(20.7184 16.2109 51.3828)" fill="url(#paint55_linear_25_3846)" fill-opacity="0.56"/>
<rect x="18.5459" y="46.5703" width="5.38685" height="0.197457" transform="rotate(56.6942 18.5459 46.5703)" fill="url(#paint56_linear_25_3846)" fill-opacity="0.56"/>
<rect x="11.6133" y="42.7861" width="7.01594" height="0.461679" transform="rotate(108.784 11.6133 42.7861)" fill="url(#paint57_linear_25_3846)" fill-opacity="0.56"/>
<path d="M22.6913 46.3862L22.818 45.5918L23.4743 46.5014L21.4824 47.7794L22.6913 46.3862Z" fill="white"/>
<path d="M31.9709 44.9699L31.3262 43.8991L32.0861 43.1968L31.9709 44.9699Z" fill="white"/>
<path d="M28.9664 47.1114L28.7246 46.5588L29.7954 45.4189L29.4039 46.9502L28.8973 47.4108L28.9664 47.1114Z" fill="white"/>
<path d="M25.587 49.0638L25.4402 48.1746L23.7276 46.9911L25.0878 49.015L25.8462 49.4626L25.587 49.0638Z" fill="white"/>
<path d="M17.2686 48.0671L17.5103 47.4569L18.3738 46.3286L18.1206 47.1921L17.4297 48.5277L17.2686 48.0671Z" fill="white"/>
<path d="M30.2207 43.5652L30.4625 42.955L31.326 41.8267L31.0727 42.6902L30.3819 44.0257L30.2207 43.5652Z" fill="white"/>
<path d="M18.0166 43.2082L20.5265 42.4253L22.0693 44.6244L18.0166 45.1885V43.2082Z" fill="white"/>
<path d="M80.0234 43.4033C79.3203 43.6963 78.6221 43.9648 77.9287 44.209C77.2451 44.4531 76.5322 44.6631 75.79 44.8389C75.0479 45.0146 74.2666 45.1514 73.4463 45.249C72.626 45.3467 71.7324 45.3955 70.7656 45.3955C69.5742 45.3955 68.4268 45.2979 67.3232 45.1025C66.2295 44.9072 65.209 44.6143 64.2617 44.2236C63.3145 43.833 62.4551 43.3496 61.6836 42.7734C60.9121 42.1875 60.248 41.5088 59.6914 40.7373C59.1445 39.9658 58.7197 39.0967 58.417 38.1299C58.124 37.1631 57.9775 36.1035 57.9775 34.9512C57.9775 33.7988 58.124 32.7393 58.417 31.7725C58.7197 30.8057 59.1445 29.9365 59.6914 29.165C60.248 28.3936 60.9121 27.7197 61.6836 27.1436C62.4551 26.5576 63.3145 26.0693 64.2617 25.6787C65.209 25.2881 66.2295 24.9951 67.3232 24.7998C68.417 24.6045 69.5645 24.5068 70.7656 24.5068C71.7324 24.5068 72.626 24.5557 73.4463 24.6533C74.2666 24.751 75.0479 24.8877 75.79 25.0635C76.5322 25.2393 77.2451 25.4492 77.9287 25.6934C78.6221 25.9277 79.3203 26.1914 80.0234 26.4844V28.6816C79.4668 28.3301 78.8711 27.998 78.2363 27.6855C77.6016 27.373 76.9131 27.0996 76.1709 26.8652C75.4385 26.6309 74.6523 26.4453 73.8125 26.3086C72.9727 26.1719 72.0742 26.1035 71.1172 26.1035C69.1836 26.1035 67.5088 26.3135 66.0928 26.7334C64.6768 27.1533 63.5049 27.749 62.5771 28.5205C61.6592 29.2822 60.9756 30.21 60.5264 31.3037C60.0869 32.3877 59.8672 33.6035 59.8672 34.9512C59.8672 36.2988 60.0869 37.5146 60.5264 38.5986C60.9756 39.6826 61.6592 40.6104 62.5771 41.3818C63.5049 42.1436 64.6768 42.7344 66.0928 43.1543C67.5088 43.5645 69.1836 43.7695 71.1172 43.7695C72.0742 43.7695 72.9775 43.7012 73.8271 43.5645C74.6865 43.4277 75.4873 43.2422 76.2295 43.0078C76.9814 42.7734 77.6699 42.5049 78.2949 42.2021C78.9297 41.8896 79.5059 41.5625 80.0234 41.2207V43.4033ZM100.37 26.4258C100.087 26.3379 99.6914 26.2451 99.1836 26.1475C98.6855 26.04 98.041 25.9863 97.25 25.9863C96.1562 25.9863 95.126 26.123 94.1592 26.3965C93.2021 26.6602 92.3086 27.0215 91.4785 27.4805C90.6582 27.9395 89.8965 28.4766 89.1934 29.0918C88.4902 29.6973 87.8555 30.3418 87.2891 31.0254V45H85.458V24.873H87.2891V28.9746C87.9434 28.3008 88.6514 27.6807 89.4131 27.1143C90.1846 26.5479 90.9951 26.0645 91.8447 25.6641C92.6943 25.2539 93.583 24.9365 94.5107 24.7119C95.4482 24.4775 96.415 24.3604 97.4111 24.3604C97.7529 24.3604 98.0605 24.3701 98.334 24.3896C98.6074 24.3994 98.8564 24.4189 99.0811 24.4482C99.3154 24.4678 99.5352 24.4922 99.7402 24.5215C99.9453 24.5508 100.155 24.585 100.37 24.624V26.4258ZM124.32 37.6465C124.32 38.9648 124.013 40.1074 123.397 41.0742C122.782 42.0312 121.933 42.8271 120.849 43.4619C119.774 44.0967 118.5 44.5703 117.025 44.8828C115.561 45.1855 113.974 45.3369 112.265 45.3369C110.409 45.3369 108.705 45.2197 107.152 44.9854C105.6 44.7412 104.242 44.4043 103.08 43.9746V41.8506C103.705 42.1143 104.35 42.3584 105.014 42.583C105.678 42.8076 106.386 43.0078 107.138 43.1836C107.89 43.3496 108.69 43.4814 109.54 43.5791C110.399 43.667 111.327 43.7109 112.323 43.7109C113.729 43.7109 115.048 43.5791 116.278 43.3154C117.509 43.042 118.578 42.6514 119.486 42.1436C120.404 41.626 121.127 40.9912 121.654 40.2393C122.191 39.4873 122.46 38.623 122.46 37.6465V33.8379C121.991 34.4727 121.415 35.083 120.731 35.6689C120.058 36.2451 119.301 36.7578 118.461 37.207C117.631 37.6465 116.728 38.0029 115.751 38.2764C114.774 38.54 113.744 38.6719 112.66 38.6719C111.43 38.6719 110.336 38.5596 109.379 38.335C108.432 38.1006 107.602 37.7832 106.889 37.3828C106.186 36.9824 105.59 36.5088 105.102 35.9619C104.613 35.4053 104.218 34.8047 103.915 34.1602C103.622 33.5059 103.407 32.8223 103.271 32.1094C103.144 31.3965 103.08 30.6738 103.08 29.9414V24.873H104.94V29.5459C104.94 30.6689 105.072 31.6895 105.336 32.6074C105.609 33.5254 106.054 34.3115 106.669 34.9658C107.284 35.6201 108.09 36.1279 109.086 36.4893C110.092 36.8408 111.332 37.0166 112.807 37.0166C113.949 37.0166 114.999 36.8652 115.956 36.5625C116.913 36.25 117.787 35.835 118.578 35.3174C119.369 34.79 120.087 34.1846 120.731 33.501C121.376 32.8174 121.952 32.0996 122.46 31.3477V24.873H124.32V37.6465ZM147.362 27.8467C146.981 27.6611 146.542 27.4658 146.044 27.2607C145.546 27.0459 144.975 26.8555 144.33 26.6895C143.695 26.5234 142.978 26.3867 142.177 26.2793C141.376 26.1621 140.487 26.1035 139.511 26.1035C138.329 26.1035 137.274 26.1719 136.347 26.3086C135.429 26.4453 134.647 26.6602 134.003 26.9531C133.368 27.2363 132.88 27.5977 132.538 28.0371C132.206 28.4766 132.04 28.999 132.04 29.6045C132.04 30.1123 132.196 30.5566 132.509 30.9375C132.831 31.3184 133.261 31.6553 133.798 31.9482C134.345 32.2412 134.979 32.5098 135.702 32.7539C136.435 32.9883 137.206 33.2129 138.017 33.4277C138.837 33.6328 139.677 33.8428 140.536 34.0576C141.405 34.2725 142.245 34.5068 143.056 34.7607C143.876 35.0049 144.647 35.2832 145.37 35.5957C146.103 35.8984 146.737 36.2549 147.274 36.665C147.821 37.0752 148.251 37.5439 148.563 38.0713C148.886 38.5986 149.047 39.209 149.047 39.9023C149.047 40.6543 148.905 41.3135 148.622 41.8799C148.339 42.4365 147.953 42.9199 147.465 43.3301C146.986 43.7305 146.42 44.0674 145.766 44.3408C145.121 44.6045 144.428 44.8145 143.686 44.9707C142.953 45.127 142.191 45.2344 141.4 45.293C140.619 45.3613 139.848 45.3955 139.086 45.3955C137.338 45.3955 135.751 45.2686 134.325 45.0146C132.909 44.7607 131.557 44.4141 130.268 43.9746V41.7334C131.596 42.5244 132.997 43.0664 134.472 43.3594C135.956 43.6523 137.514 43.7988 139.145 43.7988C140.297 43.7988 141.361 43.7305 142.338 43.5938C143.314 43.457 144.159 43.2422 144.872 42.9492C145.585 42.6465 146.137 42.2559 146.527 41.7773C146.928 41.2988 147.128 40.7129 147.128 40.0195C147.128 39.4629 146.967 38.9746 146.645 38.5547C146.332 38.1348 145.902 37.7686 145.355 37.4561C144.818 37.1338 144.184 36.8506 143.451 36.6064C142.729 36.3623 141.962 36.1377 141.151 35.9326C140.341 35.7178 139.501 35.5127 138.632 35.3174C137.772 35.1123 136.938 34.8926 136.127 34.6582C135.316 34.4238 134.545 34.1602 133.812 33.8672C133.09 33.5742 132.455 33.2324 131.908 32.8418C131.371 32.4414 130.941 31.9824 130.619 31.4648C130.307 30.9473 130.15 30.3467 130.15 29.6631C130.15 28.9893 130.277 28.3936 130.531 27.876C130.785 27.3486 131.132 26.8945 131.571 26.5137C132.021 26.1328 132.543 25.8154 133.139 25.5615C133.734 25.2979 134.369 25.0928 135.043 24.9463C135.727 24.79 136.435 24.6777 137.167 24.6094C137.899 24.541 138.622 24.5068 139.335 24.5068C140.116 24.5068 140.854 24.541 141.547 24.6094C142.25 24.6777 142.924 24.7705 143.568 24.8877C144.223 24.9951 144.857 25.1221 145.473 25.2686C146.098 25.415 146.728 25.5713 147.362 25.7373V27.8467ZM162.875 26.543V45H161.059V26.543H151.903V24.873H172.03V26.543H162.875ZM194.208 45V42.7734C193.505 43.1543 192.704 43.5059 191.806 43.8281C190.917 44.1504 189.975 44.4287 188.979 44.6631C187.992 44.8975 186.977 45.0781 185.932 45.2051C184.887 45.332 183.861 45.3955 182.855 45.3955C181.547 45.3955 180.37 45.2783 179.325 45.0439C178.29 44.8096 177.411 44.4629 176.688 44.0039C175.966 43.5352 175.409 42.959 175.019 42.2754C174.628 41.582 174.433 40.7812 174.433 39.873C174.433 38.9746 174.657 38.1836 175.106 37.5C175.565 36.8066 176.215 36.2061 177.055 35.6982C177.895 35.1807 178.905 34.7461 180.087 34.3945C181.278 34.0332 182.606 33.7305 184.071 33.4863C185.536 33.2324 187.118 33.0273 188.817 32.8711C190.526 32.7051 192.323 32.5684 194.208 32.4609V30.9229C194.208 30.2979 194.091 29.7461 193.856 29.2676C193.622 28.7891 193.295 28.374 192.875 28.0225C192.455 27.6611 191.962 27.3633 191.396 27.1289C190.829 26.8848 190.214 26.6895 189.55 26.543C188.896 26.3965 188.202 26.2939 187.47 26.2354C186.747 26.167 186.02 26.1328 185.287 26.1328C184.301 26.1328 183.402 26.1816 182.592 26.2793C181.781 26.377 181.024 26.5137 180.321 26.6895C179.618 26.8555 178.944 27.0508 178.3 27.2754C177.655 27.5 177.006 27.7393 176.352 27.9932V25.8545C177.709 25.4932 179.154 25.1807 180.688 24.917C182.23 24.6436 183.866 24.5068 185.595 24.5068C187.06 24.5068 188.427 24.6338 189.696 24.8877C190.966 25.1318 192.069 25.5273 193.007 26.0742C193.944 26.6211 194.682 27.3291 195.219 28.1982C195.756 29.0576 196.024 30.1074 196.024 31.3477V45H194.208ZM194.208 34.0869C191.015 34.2627 188.285 34.5117 186.02 34.834C183.764 35.1562 181.918 35.5518 180.482 36.0205C179.047 36.4893 177.992 37.0361 177.318 37.6611C176.654 38.2861 176.322 38.9941 176.322 39.7852C176.322 40.4297 176.483 41.001 176.806 41.499C177.138 41.9971 177.611 42.417 178.227 42.7588C178.842 43.0908 179.589 43.3447 180.468 43.5205C181.347 43.6865 182.333 43.7695 183.427 43.7695C184.071 43.7695 184.735 43.7354 185.419 43.667C186.112 43.5889 186.801 43.4863 187.484 43.3594C188.168 43.2227 188.842 43.0664 189.506 42.8906C190.17 42.7051 190.795 42.5049 191.381 42.29C191.967 42.0752 192.499 41.8457 192.978 41.6016C193.466 41.3574 193.876 41.1084 194.208 40.8545V34.0869ZM204.477 38.042C204.477 38.9502 204.55 39.7314 204.696 40.3857C204.843 41.04 205.15 41.5771 205.619 41.9971C206.088 42.417 206.762 42.7295 207.641 42.9346C208.529 43.1299 209.706 43.2275 211.171 43.2275H220.268V45H210.805C209.193 45 207.86 44.873 206.806 44.6191C205.761 44.3555 204.926 43.9551 204.301 43.418C203.686 42.8711 203.256 42.1826 203.012 41.3525C202.768 40.5225 202.646 39.5361 202.646 38.3936V24.873H204.477V38.042Z" fill="#002A78"/>
<defs>
<filter id="filter0_f_25_3846" x="45.5474" y="20.8297" width="3.3602" height="4.04282" filterUnits="userSpaceOnUse" color-interpolation-filters="sRGB">
<feFlood flood-opacity="0" result="BackgroundImageFix"/>
<feBlend mode="normal" in="SourceGraphic" in2="BackgroundImageFix" result="shape"/>
<feGaussianBlur stdDeviation="0.191124" result="effect1_foregroundBlur_25_3846"/>
</filter>
<filter id="filter1_f_25_3846" x="40.5862" y="16.1458" width="4.94479" height="6.36032" filterUnits="userSpaceOnUse" color-interpolation-filters="sRGB">
<feFlood flood-opacity="0" result="BackgroundImageFix"/>
<feBlend mode="normal" in="SourceGraphic" in2="BackgroundImageFix" result="shape"/>
<feGaussianBlur stdDeviation="0.1278" result="effect1_foregroundBlur_25_3846"/>
</filter>
<filter id="filter2_f_25_3846" x="12.9263" y="12.4884" width="3.40121" height="4.08041" filterUnits="userSpaceOnUse" color-interpolation-filters="sRGB">
<feFlood flood-opacity="0" result="BackgroundImageFix"/>
<feBlend mode="normal" in="SourceGraphic" in2="BackgroundImageFix" result="shape"/>
<feGaussianBlur stdDeviation="0.191124" result="effect1_foregroundBlur_25_3846"/>
</filter>
<filter id="filter3_f_25_3846" x="18.7854" y="9.52419" width="3.71237" height="7.4819" filterUnits="userSpaceOnUse" color-interpolation-filters="sRGB">
<feFlood flood-opacity="0" result="BackgroundImageFix"/>
<feBlend mode="normal" in="SourceGraphic" in2="BackgroundImageFix" result="shape"/>
<feGaussianBlur stdDeviation="0.1278" result="effect1_foregroundBlur_25_3846"/>
</filter>
<filter id="filter4_f_25_3846" x="6.22723" y="30.9694" width="3.92543" height="3.52308" filterUnits="userSpaceOnUse" color-interpolation-filters="sRGB">
<feFlood flood-opacity="0" result="BackgroundImageFix"/>
<feBlend mode="normal" in="SourceGraphic" in2="BackgroundImageFix" result="shape"/>
<feGaussianBlur stdDeviation="0.0460539" result="effect1_foregroundBlur_25_3846"/>
</filter>
<filter id="filter5_f_25_3846" x="4.18964" y="24.4597" width="1.28283" height="0.859488" filterUnits="userSpaceOnUse" color-interpolation-filters="sRGB">
<feFlood flood-opacity="0" result="BackgroundImageFix"/>
<feBlend mode="normal" in="SourceGraphic" in2="BackgroundImageFix" result="shape"/>
<feGaussianBlur stdDeviation="0.131254" result="effect1_foregroundBlur_25_3846"/>
</filter>
<linearGradient id="paint0_linear_25_3846" x1="43.8184" y1="37.7742" x2="42.9664" y2="32.7198" gradientUnits="userSpaceOnUse">
<stop stop-color="#002A78"/>
<stop offset="1" stop-color="#030303"/>
</linearGradient>
<linearGradient id="paint1_linear_25_3846" x1="49.171" y1="12.0592" x2="34.4089" y2="18.7903" gradientUnits="userSpaceOnUse">
<stop stop-color="#002A78"/>
<stop offset="1" stop-color="#6461E8"/>
</linearGradient>
<linearGradient id="paint2_linear_25_3846" x1="51.0118" y1="14.3491" x2="38.525" y2="21.7986" gradientUnits="userSpaceOnUse">
<stop stop-color="#6190E8"/>
<stop offset="1" stop-color="#A7BFE8"/>
</linearGradient>
<linearGradient id="paint3_linear_25_3846" x1="43.7378" y1="23.6606" x2="22.8471" y2="49.413" gradientUnits="userSpaceOnUse">
<stop stop-color="#235DCA"/>
<stop offset="1" stop-color="#002A78"/>
</linearGradient>
<linearGradient id="paint4_linear_25_3846" x1="32.1189" y1="43.6746" x2="49.7496" y2="25.6542" gradientUnits="userSpaceOnUse">
<stop stop-color="#6461E8"/>
<stop offset="1" stop-color="#002A78"/>
</linearGradient>
<linearGradient id="paint5_linear_25_3846" x1="45.0202" y1="20.2968" x2="43.0213" y2="18.7258" gradientUnits="userSpaceOnUse">
<stop stop-color="#002A78"/>
<stop offset="1" stop-color="#002A78" stop-opacity="0"/>
</linearGradient>
<linearGradient id="paint6_linear_25_3846" x1="34.4587" y1="39.5666" x2="48.787" y2="28.3083" gradientUnits="userSpaceOnUse">
<stop stop-color="#002A78"/>
<stop offset="1" stop-color="#002A78" stop-opacity="0"/>
</linearGradient>
<linearGradient id="paint7_linear_25_3846" x1="28.333" y1="41.8553" x2="42.6613" y2="30.5971" gradientUnits="userSpaceOnUse">
<stop stop-color="#002A78"/>
<stop offset="1" stop-color="#002A78" stop-opacity="0"/>
</linearGradient>
<linearGradient id="paint8_linear_25_3846" x1="0.293537" y1="0.320144" x2="0.246391" y2="5.68921" gradientUnits="userSpaceOnUse">
<stop stop-color="white" stop-opacity="0"/>
<stop offset="0.508112" stop-color="white"/>
<stop offset="1" stop-color="white" stop-opacity="0"/>
</linearGradient>
<linearGradient id="paint9_linear_25_3846" x1="0.664722" y1="0.599847" x2="0.591631" y2="10.66" gradientUnits="userSpaceOnUse">
<stop stop-color="white" stop-opacity="0"/>
<stop offset="0.508112" stop-color="white"/>
<stop offset="1" stop-color="white" stop-opacity="0"/>
</linearGradient>
<linearGradient id="paint10_linear_25_3846" x1="0.469529" y1="0.331225" x2="0.437978" y2="5.88638" gradientUnits="userSpaceOnUse">
<stop stop-color="white" stop-opacity="0"/>
<stop offset="0.508112" stop-color="white"/>
<stop offset="1" stop-color="white" stop-opacity="0"/>
</linearGradient>
<linearGradient id="paint11_linear_25_3846" x1="0.58375" y1="0.428815" x2="0.541216" y2="7.62067" gradientUnits="userSpaceOnUse">
<stop stop-color="white" stop-opacity="0"/>
<stop offset="0.508112" stop-color="white"/>
<stop offset="1" stop-color="white" stop-opacity="0"/>
</linearGradient>
<linearGradient id="paint12_linear_25_3846" x1="0.809991" y1="0.602089" x2="0.749559" y2="10.7" gradientUnits="userSpaceOnUse">
<stop stop-color="white" stop-opacity="0"/>
<stop offset="0.508112" stop-color="white"/>
<stop offset="1" stop-color="white" stop-opacity="0"/>
</linearGradient>
<linearGradient id="paint13_linear_25_3846" x1="41.9573" y1="16.4525" x2="37.1792" y2="19.0834" gradientUnits="userSpaceOnUse">
<stop stop-color="white" stop-opacity="0"/>
<stop offset="0.508112" stop-color="white"/>
<stop offset="1" stop-color="white" stop-opacity="0"/>
</linearGradient>
<linearGradient id="paint14_linear_25_3846" x1="18.9157" y1="5.85869" x2="27.5048" y2="13.8145" gradientUnits="userSpaceOnUse">
<stop stop-color="#6190E8"/>
<stop offset="1" stop-color="#7378E6"/>
</linearGradient>
<linearGradient id="paint15_linear_25_3846" x1="14.7709" y1="5.73204" x2="22.554" y2="18.6962" gradientUnits="userSpaceOnUse">
<stop stop-color="#6190E8"/>
<stop offset="1" stop-color="#A7BFE8"/>
</linearGradient>
<linearGradient id="paint16_linear_25_3846" x1="18.4091" y1="16.9116" x2="25.962" y2="48.9191" gradientUnits="userSpaceOnUse">
<stop stop-color="#6461E8"/>
<stop offset="1" stop-color="#002A78"/>
</linearGradient>
<linearGradient id="paint17_linear_25_3846" x1="25.1445" y1="21.8739" x2="7.95489" y2="18.2472" gradientUnits="userSpaceOnUse">
<stop stop-color="#A7BFE8"/>
<stop offset="1" stop-color="#6260E6"/>
</linearGradient>
<linearGradient id="paint18_linear_25_3846" x1="18.5694" y1="13.3886" x2="21.4017" y2="12.456" gradientUnits="userSpaceOnUse">
<stop stop-color="#002A78"/>
<stop offset="1" stop-color="#002A78" stop-opacity="0"/>
</linearGradient>
<linearGradient id="paint19_linear_25_3846" x1="21.1721" y1="34.8038" x2="13.5271" y2="17.8904" gradientUnits="userSpaceOnUse">
<stop stop-color="#002A78"/>
<stop offset="1" stop-color="#002A78" stop-opacity="0"/>
</linearGradient>
<linearGradient id="paint20_linear_25_3846" x1="26.8254" y1="39.2134" x2="19.1804" y2="22.3" gradientUnits="userSpaceOnUse">
<stop stop-color="#002A78"/>
<stop offset="1" stop-color="#002A78" stop-opacity="0"/>
</linearGradient>
<linearGradient id="paint21_linear_25_3846" x1="17.2833" y1="24.2101" x2="17.2435" y2="29.543" gradientUnits="userSpaceOnUse">
<stop stop-color="white" stop-opacity="0"/>
<stop offset="0.508112" stop-color="white"/>
<stop offset="1" stop-color="white" stop-opacity="0"/>
</linearGradient>
<linearGradient id="paint22_linear_25_3846" x1="21.8339" y1="17.7996" x2="21.7745" y2="27.6812" gradientUnits="userSpaceOnUse">
<stop stop-color="white" stop-opacity="0"/>
<stop offset="0.508112" stop-color="white"/>
<stop offset="1" stop-color="white" stop-opacity="0"/>
</linearGradient>
<linearGradient id="paint23_linear_25_3846" x1="15.922" y1="17.6963" x2="15.8763" y2="24.3133" gradientUnits="userSpaceOnUse">
<stop stop-color="white" stop-opacity="0"/>
<stop offset="0.508112" stop-color="white"/>
<stop offset="1" stop-color="white" stop-opacity="0"/>
</linearGradient>
<linearGradient id="paint24_linear_25_3846" x1="12.5092" y1="19.9925" x2="12.4738" y2="27.106" gradientUnits="userSpaceOnUse">
<stop stop-color="white" stop-opacity="0"/>
<stop offset="0.508112" stop-color="white"/>
<stop offset="1" stop-color="white" stop-opacity="0"/>
</linearGradient>
<linearGradient id="paint25_linear_25_3846" x1="23.376" y1="17.6922" x2="23.3268" y2="27.6138" gradientUnits="userSpaceOnUse">
<stop stop-color="white" stop-opacity="0"/>
<stop offset="0.508112" stop-color="white"/>
<stop offset="1" stop-color="white" stop-opacity="0"/>
</linearGradient>
<linearGradient id="paint26_linear_25_3846" x1="23.7229" y1="11.0969" x2="26.8168" y2="15.8929" gradientUnits="userSpaceOnUse">
<stop stop-color="white" stop-opacity="0"/>
<stop offset="0.508112" stop-color="white"/>
<stop offset="1" stop-color="white" stop-opacity="0"/>
</linearGradient>
<linearGradient id="paint27_linear_25_3846" x1="2.39313" y1="24.2226" x2="10.3605" y2="25.2127" gradientUnits="userSpaceOnUse">
<stop stop-color="#2926B9"/>
<stop offset="0.705754" stop-color="#235DCA"/>
<stop offset="1" stop-color="white"/>
</linearGradient>
<linearGradient id="paint28_linear_25_3846" x1="4.43102" y1="28.2868" x2="20.0548" y2="41.8728" gradientUnits="userSpaceOnUse">
<stop offset="0.0882203" stop-color="white"/>
<stop offset="0.554527" stop-color="#6198FF"/>
<stop offset="1" stop-color="white"/>
</linearGradient>
<linearGradient id="paint29_linear_25_3846" x1="11.3621" y1="36.7493" x2="13.8145" y2="33.986" gradientUnits="userSpaceOnUse">
<stop stop-color="#235DCA"/>
<stop offset="1" stop-color="white" stop-opacity="0"/>
</linearGradient>
<radialGradient id="paint30_radial_25_3846" cx="0" cy="0" r="1" gradientUnits="userSpaceOnUse" gradientTransform="translate(11.1894 33.3988) rotate(-43.4549) scale(8.15237 15.3879)">
<stop stop-color="white"/>
<stop offset="1" stop-color="#6461E8"/>
</radialGradient>
<linearGradient id="paint31_linear_25_3846" x1="18.7653" y1="43.2659" x2="2.55432" y2="31.407" gradientUnits="userSpaceOnUse">
<stop stop-color="#110078"/>
<stop offset="1" stop-color="#235DCA"/>
</linearGradient>
<linearGradient id="paint32_linear_25_3846" x1="6.35377" y1="27.0434" x2="3.29118" y2="32.5814" gradientUnits="userSpaceOnUse">
<stop stop-color="#002A78"/>
<stop offset="1" stop-color="#6461E8"/>
</linearGradient>
<linearGradient id="paint33_linear_25_3846" x1="12.6112" y1="34.4266" x2="12.5518" y2="44.3081" gradientUnits="userSpaceOnUse">
<stop stop-color="white" stop-opacity="0"/>
<stop offset="0.508112" stop-color="white"/>
<stop offset="1" stop-color="white" stop-opacity="0"/>
</linearGradient>
<linearGradient id="paint34_linear_25_3846" x1="2.6867" y1="25.6682" x2="4.82312" y2="29.8176" gradientUnits="userSpaceOnUse">
<stop stop-color="white" stop-opacity="0"/>
<stop offset="0.508112" stop-color="white"/>
<stop offset="1" stop-color="white" stop-opacity="0"/>
</linearGradient>
<linearGradient id="paint35_linear_25_3846" x1="7.50485" y1="33.5023" x2="10.0608" y2="31.8443" gradientUnits="userSpaceOnUse">
<stop stop-color="#6461E8"/>
<stop offset="1" stop-color="white"/>
</linearGradient>
<linearGradient id="paint36_linear_25_3846" x1="17.1651" y1="40.7329" x2="14.3904" y2="34.6653" gradientUnits="userSpaceOnUse">
<stop stop-color="#002A78"/>
<stop offset="1" stop-color="#002A78" stop-opacity="0"/>
</linearGradient>
<linearGradient id="paint37_linear_25_3846" x1="7.70266" y1="33.3916" x2="7.67302" y2="44.8572" gradientUnits="userSpaceOnUse">
<stop stop-color="white" stop-opacity="0"/>
<stop offset="0.565" stop-color="white"/>
<stop offset="1" stop-color="white" stop-opacity="0"/>
</linearGradient>
<linearGradient id="paint38_linear_25_3846" x1="7.70266" y1="35.2051" x2="7.67302" y2="46.6707" gradientUnits="userSpaceOnUse">
<stop stop-color="white" stop-opacity="0"/>
<stop offset="0.565" stop-color="white"/>
<stop offset="1" stop-color="white" stop-opacity="0"/>
</linearGradient>
<linearGradient id="paint39_linear_25_3846" x1="32.2022" y1="23.3822" x2="30.8897" y2="16.2439" gradientUnits="userSpaceOnUse">
<stop stop-color="#002A78"/>
<stop offset="1" stop-color="#827FED"/>
</linearGradient>
<linearGradient id="paint40_linear_25_3846" x1="25.5244" y1="22.1503" x2="31.12" y2="40.5488" gradientUnits="userSpaceOnUse">
<stop stop-color="#6461E8"/>
<stop offset="1" stop-color="#183160"/>
</linearGradient>
<radialGradient id="paint41_radial_25_3846" cx="0" cy="0" r="1" gradientUnits="userSpaceOnUse" gradientTransform="translate(35.3454 33.4105) rotate(80.109) scale(7.84211 10.7892)">
<stop stop-color="#235DCA"/>
<stop offset="1" stop-color="#002A78"/>
</radialGradient>
<linearGradient id="paint42_linear_25_3846" x1="32.802" y1="14.1144" x2="32.6853" y2="22.2597" gradientUnits="userSpaceOnUse">
<stop offset="0.0242118" stop-color="white" stop-opacity="0"/>
<stop offset="0.517741" stop-color="white"/>
<stop offset="1" stop-color="white" stop-opacity="0"/>
</linearGradient>
<linearGradient id="paint43_linear_25_3846" x1="26.2634" y1="22.4922" x2="26.1003" y2="36.3515" gradientUnits="userSpaceOnUse">
<stop offset="0.0242118" stop-color="white" stop-opacity="0"/>
<stop offset="0.517741" stop-color="white"/>
<stop offset="1" stop-color="white" stop-opacity="0"/>
</linearGradient>
<linearGradient id="paint44_linear_25_3846" x1="38.0387" y1="25.1332" x2="36.0854" y2="32.2211" gradientUnits="userSpaceOnUse">
<stop offset="0.0242118" stop-color="white" stop-opacity="0"/>
<stop offset="0.517741" stop-color="white"/>
<stop offset="1" stop-color="white" stop-opacity="0"/>
</linearGradient>
<linearGradient id="paint45_linear_25_3846" x1="33.306" y1="27.899" x2="32.3751" y2="44.1111" gradientUnits="userSpaceOnUse">
<stop offset="0.0498941" stop-color="white" stop-opacity="0"/>
<stop offset="0.490512" stop-color="white" stop-opacity="0.9"/>
<stop offset="0.941287" stop-color="white" stop-opacity="0"/>
</linearGradient>
<linearGradient id="paint46_linear_25_3846" x1="26.5267" y1="22.5013" x2="26.4894" y2="26.9474" gradientUnits="userSpaceOnUse">
<stop offset="0.0242118" stop-color="white" stop-opacity="0"/>
<stop offset="0.517741" stop-color="white"/>
<stop offset="1" stop-color="white" stop-opacity="0"/>
</linearGradient>
<linearGradient id="paint47_linear_25_3846" x1="39.0551" y1="24.8682" x2="34.6915" y2="24.9716" gradientUnits="userSpaceOnUse">
<stop offset="0.139725" stop-color="#6190E8" stop-opacity="0"/>
<stop offset="0.56719" stop-color="#6190E8"/>
<stop offset="0.982559" stop-color="#6190E8" stop-opacity="0"/>
</linearGradient>
<linearGradient id="paint48_linear_25_3846" x1="17.0147" y1="42.6786" x2="13.1347" y2="42.621" gradientUnits="userSpaceOnUse">
<stop stop-color="white" stop-opacity="0.106454"/>
<stop offset="0.519142" stop-color="white"/>
<stop offset="1" stop-color="white" stop-opacity="0"/>
</linearGradient>
<linearGradient id="paint49_linear_25_3846" x1="18.8693" y1="44.6383" x2="12.2808" y2="44.5626" gradientUnits="userSpaceOnUse">
<stop offset="0.0674114" stop-color="white" stop-opacity="0"/>
<stop offset="0.519142" stop-color="white"/>
<stop offset="1" stop-color="white" stop-opacity="0"/>
</linearGradient>
<linearGradient id="paint50_linear_25_3846" x1="32.2529" y1="50.2244" x2="26.259" y2="50.1053" gradientUnits="userSpaceOnUse">
<stop offset="0.0530393" stop-color="white" stop-opacity="0"/>
<stop offset="0.519142" stop-color="white"/>
<stop offset="1" stop-color="white" stop-opacity="0"/>
</linearGradient>
<linearGradient id="paint51_linear_25_3846" x1="39.7692" y1="44.6522" x2="37.768" y2="44.6389" gradientUnits="userSpaceOnUse">
<stop offset="0.0530393" stop-color="white" stop-opacity="0"/>
<stop offset="0.519142" stop-color="white"/>
<stop offset="1" stop-color="white" stop-opacity="0"/>
</linearGradient>
<linearGradient id="paint52_linear_25_3846" x1="41.3946" y1="41.4602" x2="39.1616" y2="41.4428" gradientUnits="userSpaceOnUse">
<stop offset="0.0530393" stop-color="white" stop-opacity="0"/>
<stop offset="0.519142" stop-color="white"/>
<stop offset="1" stop-color="white" stop-opacity="0"/>
</linearGradient>
<linearGradient id="paint53_linear_25_3846" x1="39.5519" y1="48.7365" x2="37.3188" y2="48.7192" gradientUnits="userSpaceOnUse">
<stop offset="0.0530393" stop-color="white" stop-opacity="0"/>
<stop offset="0.519142" stop-color="white"/>
<stop offset="1" stop-color="white" stop-opacity="0"/>
</linearGradient>
<linearGradient id="paint54_linear_25_3846" x1="35.7061" y1="50.8781" x2="33.4731" y2="50.8608" gradientUnits="userSpaceOnUse">
<stop offset="0.0530393" stop-color="white" stop-opacity="0"/>
<stop offset="0.519142" stop-color="white"/>
<stop offset="1" stop-color="white" stop-opacity="0"/>
</linearGradient>
<linearGradient id="paint55_linear_25_3846" x1="26.5469" y1="51.6751" x2="16.5177" y2="51.3415" gradientUnits="userSpaceOnUse">
<stop offset="0.0530393" stop-color="white" stop-opacity="0"/>
<stop offset="0.519142" stop-color="white"/>
<stop offset="1" stop-color="white" stop-opacity="0"/>
</linearGradient>
<linearGradient id="paint56_linear_25_3846" x1="24.0436" y1="46.6737" x2="18.7165" y2="46.4074" gradientUnits="userSpaceOnUse">
<stop offset="0.0530393" stop-color="white" stop-opacity="0"/>
<stop offset="0.519142" stop-color="white"/>
<stop offset="1" stop-color="white" stop-opacity="0"/>
</linearGradient>
<linearGradient id="paint57_linear_25_3846" x1="18.7737" y1="43.028" x2="11.8235" y2="42.8344" gradientUnits="userSpaceOnUse">
<stop stop-color="white" stop-opacity="0.106454"/>
<stop offset="0.519142" stop-color="white"/>
<stop offset="1" stop-color="white" stop-opacity="0"/>
</linearGradient>
</defs>
</svg>
