<svg width="15" height="15" viewBox="0 0 15 15" fill="none" xmlns="http://www.w3.org/2000/svg">
    <path d="M0.648438 15V0.722656H5.77539C6.87565 0.722656 7.76432 0.924479 8.44141 1.32812C9.125 1.73177 9.62305 2.29818 9.93555 3.02734C10.2546 3.75 10.4141 4.59635 10.4141 5.56641V11.3574H8.36328V5.60547C8.36328 4.86979 8.2526 4.26758 8.03125 3.79883C7.81641 3.33008 7.49414 2.98503 7.06445 2.76367C6.64128 2.54232 6.12044 2.43164 5.50195 2.43164H2.70898V15H0.648438ZM4.50586 4.35547H6.56641V13.291H9.30078C9.95833 13.291 10.5052 13.1803 10.9414 12.959C11.3841 12.7311 11.7161 12.3828 11.9375 11.9141C12.1654 11.4388 12.2793 10.8333 12.2793 10.0977V0.722656H14.3301V10.127C14.3301 11.0775 14.1673 11.9206 13.8418 12.6562C13.5228 13.3854 13.0117 13.9583 12.3086 14.375C11.6055 14.7917 10.6712 15 9.50586 15H4.50586V4.35547Z" fill="#002A78"/>
    </svg>
    