<svg width="89" height="89" viewBox="0 0 89 89" fill="none" xmlns="http://www.w3.org/2000/svg">
<g clip-path="url(#clip0_483_2751)">
<rect width="89" height="89" rx="44.5" fill="#D4DCEB"/>
<path d="M58.1982 34.004C58.1982 37.5224 56.8005 40.8967 54.3126 43.3846C51.8247 45.8724 48.4504 47.2701 44.932 47.2701C41.4136 47.2701 38.0393 45.8724 35.5515 43.3846C33.0636 40.8967 31.6659 37.5224 31.6659 34.004C31.6659 30.4856 33.0636 27.1113 35.5515 24.6234C38.0393 22.1355 41.4136 20.7379 44.932 20.7379C48.4504 20.7379 51.8247 22.1355 54.3126 24.6234C56.8005 27.1113 58.1982 30.4856 58.1982 34.004ZM19.8738 81.9606V81.5283C19.8738 74.8824 22.5138 68.5087 27.2132 63.8094C31.9125 59.1101 38.2862 56.47 44.932 56.47C51.5779 56.47 57.9516 59.1101 62.6509 63.8094C67.3502 68.5087 69.9903 74.8824 69.9903 81.5283V81.9567C62.4256 86.5128 53.7589 88.9132 44.9281 88.8983C35.7656 88.8983 27.1928 86.363 19.8738 81.9567V81.9606Z" fill="#002A78" stroke="#002A78" stroke-width="5.89606" stroke-linecap="round" stroke-linejoin="round"/>
</g>
<defs>
<clipPath id="clip0_483_2751">
<rect width="89" height="89" rx="44.5" fill="white"/>
</clipPath>
</defs>
</svg>

