<svg width="16" height="14" viewBox="0 0 16 14" fill="none" xmlns="http://www.w3.org/2000/svg">
<path d="M11.0175 5.01095H14.7615L12.3758 2.62371C11.6077 1.85561 10.6509 1.30325 9.60169 1.02216C8.55244 0.741068 7.44769 0.74115 6.39848 1.0224C5.34928 1.30364 4.3926 1.85615 3.62463 2.62436C2.85666 3.39257 2.30445 4.34941 2.02353 5.39871M1.23903 12.733V8.98896M1.23903 8.98896H4.98303M1.23903 8.98896L3.62403 11.3762C4.39212 12.1443 5.34888 12.6967 6.39812 12.9778C7.44737 13.2588 8.55212 13.2588 9.60133 12.9775C10.6505 12.6963 11.6072 12.1438 12.3752 11.3756C13.1432 10.6073 13.6954 9.6505 13.9763 8.60121M14.7615 1.26696V5.00946" stroke="white" stroke-linecap="round" stroke-linejoin="round"/>
</svg>

