<svg width="20" height="20" viewBox="0 0 20 20" fill="none" xmlns="http://www.w3.org/2000/svg">
    <path d="M7.5 10H10.625M7.5 12.5H10.625M7.5 15H10.625M13.125 15.625H15C15.4973 15.625 15.9742 15.4275 16.3258 15.0758C16.6775 14.7242 16.875 14.2473 16.875 13.75V5.09C16.875 4.14417 16.1708 3.34167 15.2283 3.26333C14.9167 3.23749 14.6047 3.21526 14.2925 3.19667M14.2925 3.19667C14.3478 3.3759 14.3751 3.56243 14.375 3.75C14.375 3.91576 14.3092 4.07473 14.1919 4.19194C14.0747 4.30915 13.9158 4.375 13.75 4.375H10C9.655 4.375 9.375 4.095 9.375 3.75C9.375 3.5575 9.40417 3.37167 9.45833 3.19667M14.2925 3.19667C14.0567 2.43167 13.3433 1.875 12.5 1.875H11.25C10.8494 1.87509 10.4593 2.00345 10.1369 2.24128C9.81448 2.47911 9.57669 2.81392 9.45833 3.19667M9.45833 3.19667C9.145 3.21583 8.83333 3.23833 8.52167 3.26333C7.57917 3.34167 6.875 4.14417 6.875 5.09V6.875M6.875 6.875H4.0625C3.545 6.875 3.125 7.295 3.125 7.8125V17.1875C3.125 17.705 3.545 18.125 4.0625 18.125H12.1875C12.705 18.125 13.125 17.705 13.125 17.1875V7.8125C13.125 7.295 12.705 6.875 12.1875 6.875H6.875ZM5.625 10H5.63167V10.0067H5.625V10ZM5.625 12.5H5.63167V12.5067H5.625V12.5ZM5.625 15H5.63167V15.0067H5.625V15Z" stroke="white" stroke-width="1.2" stroke-linecap="round" stroke-linejoin="round"/>
    </svg>
    