<svg width="13" height="15" viewBox="0 0 13 15" fill="none" xmlns="http://www.w3.org/2000/svg">
<path d="M-0.00390625 15V0.722656H4.48828C5.42578 0.722656 6.20378 0.908203 6.82227 1.2793C7.44076 1.64388 7.89974 2.1582 8.19922 2.82227C8.50521 3.48633 8.6582 4.25781 8.6582 5.13672V11.3574H7.17383V5.14648C7.17383 4.46289 7.0599 3.88997 6.83203 3.42773C6.61068 2.95898 6.28516 2.60417 5.85547 2.36328C5.43229 2.1224 4.91797 2.00195 4.3125 2.00195H1.5V15H-0.00390625ZM3.58008 4.35547H5.08398V13.7207H7.79883C8.47591 13.7207 9.04232 13.6003 9.49805 13.3594C9.96029 13.112 10.3053 12.7507 10.5332 12.2754C10.7676 11.8001 10.8848 11.224 10.8848 10.5469V0.722656H12.3789V10.5469C12.3789 11.3867 12.2259 12.1452 11.9199 12.8223C11.6204 13.4928 11.1452 14.0234 10.4941 14.4141C9.8431 14.8047 8.98698 15 7.92578 15H3.58008V4.35547Z" fill="#002A78"/>
</svg>

