<svg width="28" height="28" viewBox="0 0 28 28" fill="none" xmlns="http://www.w3.org/2000/svg">
<path d="M16.6293 10.5001L16.2257 21.0001M10.6397 21.0001L10.236 10.5001M21.8653 8L20.6193 22.952C20.5685 23.6114 20.2706 24.2273 19.7852 24.6766C19.2998 25.1258 18.6627 25.3753 18.0013 25.3751H8.864C8.20261 25.3753 7.56553 25.1258 7.08014 24.6766C6.59476 24.2273 6.29685 23.6114 6.246 22.952L5 8" stroke="#B00000" stroke-width="1.5" stroke-linecap="round" stroke-linejoin="round"/>
<path d="M23.25 6.32428C22.8533 6.25544 22.4567 6.19127 22.0577 6.13061C20.7112 5.92704 19.3577 5.77255 18 5.66744M18 5.66744V4.59878C18 3.22211 16.9383 2.07411 15.5617 2.03094C14.2709 1.98969 12.9791 1.98969 11.6883 2.03094C10.3117 2.07411 9.25 3.22328 9.25 4.59878V5.66744M18 5.66744C15.0877 5.44237 12.1623 5.44237 9.25 5.66744M4 6.32311C4.39667 6.25427 4.79333 6.19011 5.19233 6.13061C6.53882 5.92705 7.89227 5.77256 9.25 5.66744" stroke="#B00000" stroke-width="1.5" stroke-linecap="round" stroke-linejoin="round"/>
</svg>
